<?xml version="1.0" encoding="UTF-8"?>
<svg version="1.1" xmlns="http://www.w3.org/2000/svg" width="177" height="255">
<path d="M0 0 C58.41 0 116.82 0 177 0 C177 84.15 177 168.3 177 255 C118.59 255 60.18 255 0 255 C0 170.85 0 86.7 0 0 Z " fill="#FEFEFE" transform="translate(0,0)"/>
<path d="M0 0 C2.0078125 0.5234375 2.0078125 0.5234375 3.41064453 2.45849609 C5.53800692 6.54087264 7.03822076 10.75063643 8.5703125 15.0859375 C8.91414474 16.04511078 9.25797699 17.00428406 9.61222839 17.99252319 C10.74911076 21.16772448 11.87845451 24.34555298 13.0078125 27.5234375 C13.80328488 29.7496931 14.59927333 31.97576436 15.39575195 34.20166016 C17.07320281 38.89166689 18.74778001 43.58268602 20.42041016 48.27441406 C22.99541596 55.49387675 25.5840526 62.70840151 28.17578125 69.921875 C29.84905718 74.58069367 31.52223263 79.23954842 33.1953125 83.8984375 C33.58823486 84.9925293 33.98115723 86.08662109 34.38598633 87.21386719 C38.44898408 98.53191341 42.48641389 109.85744192 46.44390869 121.21282959 C48.51146062 127.13414929 50.62217974 133.03899901 52.75390625 138.9375 C53.05936874 139.78331635 53.36483124 140.62913269 53.67955017 141.50057983 C54.92135062 144.93730486 56.16409229 148.37367761 57.41088867 151.80859375 C58.34055987 154.37138186 59.26630416 156.93555968 60.19140625 159.5 C60.47567978 160.28001373 60.75995331 161.06002747 61.05284119 161.86367798 C63.0078125 167.29628033 63.0078125 167.29628033 63.0078125 169.5234375 C60.0378125 169.5234375 57.0678125 169.5234375 54.0078125 169.5234375 C49.11323151 156.75381022 44.57903831 143.86385111 40.06481934 130.95568848 C34.1600107 114.07760819 28.23544934 97.21167757 22.02441406 80.44360352 C17.28592997 67.63218068 12.71456851 54.76133459 8.13183594 41.89355469 C7.82404205 41.02949005 7.51624817 40.16542542 7.1991272 39.275177 C6.60310701 37.6014107 6.00753362 35.92748521 5.41244507 34.25338745 C3.52941906 28.96219787 1.60889471 23.68639289 -0.36547852 18.4284668 C-0.9921875 16.5234375 -0.9921875 16.5234375 -0.9921875 14.5234375 C-1.6521875 14.5234375 -2.3121875 14.5234375 -2.9921875 14.5234375 C-3.0953125 15.6784375 -3.1984375 16.8334375 -3.3046875 18.0234375 C-3.70165654 22.4694908 -5.38310444 26.40341185 -6.9921875 30.5234375 C-7.5445692 31.9924014 -8.09399482 33.46247991 -8.640625 34.93359375 C-8.92123779 35.68833984 -9.20185059 36.44308594 -9.4909668 37.22070312 C-12.39104328 45.04905112 -15.17862097 52.89469417 -17.75390625 60.8359375 C-18.74195986 63.77828012 -19.77073575 66.69280678 -20.8347168 69.60791016 C-21.19042252 70.58358948 -21.54612823 71.5592688 -21.91261292 72.56451416 C-22.26887253 73.54095886 -22.62513214 74.51740356 -22.9921875 75.5234375 C-23.61110582 77.22434986 -24.22976726 78.92535571 -24.84814453 80.62646484 C-25.15626572 81.47402344 -25.4643869 82.32158203 -25.78184509 83.19482422 C-33.68768236 104.95322744 -41.53637371 126.72100033 -49.00488281 148.63378906 C-50.50351718 153.01999985 -52.02242062 157.39887404 -53.5546875 161.7734375 C-53.79469482 162.46614746 -54.03470215 163.15885742 -54.28198242 163.87255859 C-55.87561865 168.40686865 -55.87561865 168.40686865 -56.9921875 169.5234375 C-59.66277601 169.66458911 -62.31650988 169.56590857 -64.9921875 169.5234375 C-64.42196598 164.61430244 -63.37902261 160.29978424 -61.69921875 155.65625 C-61.47070724 155.01839569 -61.24219574 154.38054138 -61.00675964 153.72335815 C-60.27896884 151.69607429 -59.54213298 149.67222668 -58.8046875 147.6484375 C-58.32945261 146.33095463 -57.85483919 145.01324742 -57.38085938 143.6953125 C-56.66034615 141.69290127 -55.93909933 139.69077419 -55.21522522 137.6895752 C-53.47724544 132.8843679 -51.76659059 128.07007387 -50.0703125 123.25 C-47.92404392 117.15289485 -45.76051014 111.06223502 -43.58203125 104.9765625 C-43.28922272 104.15852142 -42.99641418 103.34048035 -42.69473267 102.49765015 C-42.08742365 100.80115654 -41.48008257 99.1046744 -40.87271118 97.40820312 C-35.64217664 82.79432556 -30.44262734 68.17013338 -25.3046875 53.5234375 C-25.04311859 52.77811768 -24.78154968 52.03279785 -24.51205444 51.26489258 C-22.09907597 44.38907574 -19.68836521 37.51246641 -17.28076172 30.63476562 C-15.87208338 26.61125988 -14.46055161 22.58876467 -13.04721069 18.56689453 C-12.51408907 17.04806682 -11.98203084 15.52886539 -11.45108032 14.00927734 C-10.72259686 11.92453053 -9.99063081 9.84103875 -9.2578125 7.7578125 C-8.84305664 6.57413086 -8.42830078 5.39044922 -8.00097656 4.17089844 C-6.2918381 -0.31455595 -4.64993525 0.32601022 0 0 Z " fill="#0F0F0F" transform="translate(91.9921875,22.4765625)"/>
</svg>
