<svg xmlns="http://www.w3.org/2000/svg" width="1536" height="395" viewBox="0 0 1536 395" version="1.1">
	<path d="M 357 293.474 L 357 357 365 357 L 373 357 373 331 L 373 305 392.750 304.980 C 403.613 304.969, 415.550 304.519, 419.278 303.980 C 440.982 300.842, 455.027 281.682, 451.102 260.565 C 448.179 244.831, 438.419 234.883, 422.598 231.513 C 418.473 230.635, 406.873 230.171, 386.750 230.081 L 357 229.948 357 293.474 M 512.947 230.750 C 512.918 231.162, 512.806 259.737, 512.697 294.249 L 512.500 356.999 520.750 356.999 L 529 357 529 331 L 529 305 544.907 305 L 560.814 305 574.206 323.250 C 581.572 333.288, 590.051 344.965, 593.049 349.199 L 598.500 356.898 609.372 356.949 C 617.921 356.989, 620.040 356.733, 619.286 355.750 C 618.759 355.063, 611.201 345.050, 602.491 333.500 C 593.781 321.950, 584.962 310.448, 582.893 307.940 L 579.132 303.380 583.816 302.130 C 594.106 299.384, 603.123 290.928, 606.687 280.682 C 609.201 273.454, 608.952 261.274, 606.140 254 C 601.364 241.645, 591.309 233.304, 578.501 231.074 C 571.563 229.865, 513.030 229.576, 512.947 230.750 M 725.632 233.250 C 724.865 235.037, 718.741 249.550, 712.024 265.500 C 696.111 303.284, 673.971 355.238, 673.361 356.225 C 673.098 356.651, 677.088 357, 682.229 357 L 691.577 357 707.454 318.750 C 716.186 297.712, 726.015 273.975, 729.295 266 C 732.575 258.025, 735.538 251.196, 735.879 250.825 C 736.221 250.453, 746.451 274.078, 758.614 303.325 L 780.727 356.500 789.364 356.789 C 794.114 356.948, 798 356.874, 798 356.624 C 798 356.374, 796.267 351.969, 794.148 346.835 C 792.030 341.701, 787.715 331.200, 784.561 323.500 C 769.484 286.701, 746.620 232.367, 745.740 231.250 C 745.084 230.418, 741.791 230, 735.891 230 L 727.027 230 725.632 233.250 M 909.355 232.750 C 907.685 236.993, 879.028 305.670, 867.919 332.058 C 862.463 345.015, 858 355.928, 858 356.308 C 858 356.689, 861.963 357, 866.806 357 L 875.612 357 885.752 332.250 C 891.329 318.637, 898.430 301.425, 901.532 294 C 904.635 286.575, 909.947 273.638, 913.337 265.251 C 916.726 256.864, 919.725 250.004, 920 250.007 C 920.275 250.010, 924.053 258.672, 928.396 269.256 C 932.738 279.840, 938.432 293.675, 941.049 300 C 943.666 306.325, 949.954 321.738, 955.021 334.250 L 964.235 357 973.224 357 C 980.012 357, 982.093 356.694, 981.722 355.750 C 980.971 353.843, 957.242 296.012, 944.279 264.500 C 937.945 249.100, 932.164 235.037, 931.432 233.250 L 930.102 230 920.270 230 C 910.474 230, 910.435 230.010, 909.355 232.750 M 1044 293.500 L 1044 357 1051.750 357 L 1059.500 357 1059.343 304.750 L 1059.187 252.500 1061.623 255.500 C 1062.963 257.150, 1069.524 265.700, 1076.203 274.500 C 1082.882 283.300, 1093.814 297.475, 1100.495 306 C 1107.176 314.525, 1118.819 329.488, 1126.369 339.250 L 1140.095 357 1148.055 357 L 1156.015 357 1155.757 293.750 L 1155.500 230.500 1147.759 230.208 L 1140.019 229.916 1139.759 280.205 L 1139.500 330.494 1131.460 319.997 C 1121.384 306.841, 1084.949 259.700, 1071.757 242.750 L 1061.834 230 1052.917 230 L 1044 230 1044 293.500 M 373 267.500 L 373 290.133 396.250 289.816 C 418.742 289.510, 419.638 289.421, 423.736 287.074 C 438.176 278.803, 438.454 256.642, 424.223 248.277 L 419.500 245.500 396.250 245.184 L 373 244.867 373 267.500 M 529 267 L 529 289 552.343 289 C 574.629 289, 575.878 288.898, 579.944 286.748 C 582.287 285.509, 585.600 282.568, 587.306 280.212 C 589.818 276.744, 590.487 274.715, 590.815 269.563 C 591.336 261.379, 589.947 257.351, 584.815 252.168 C 578.528 245.818, 574.535 245, 549.818 245 L 529 245 529 267" stroke="none" fill="#1B3A6B" fill-rule="evenodd"/>
</svg>