<?xml version="1.0" encoding="UTF-8"?>
<svg version="1.1" xmlns="http://www.w3.org/2000/svg" width="1536" height="395">
<path d="M0 0 C0.75990234 -0.01224609 1.51980469 -0.02449219 2.30273438 -0.03710938 C6.49492243 -0.04803602 10.00164427 -0.02401344 13.6875 2.1875 C15.9765625 4.734375 15.9765625 4.734375 18.3125 7.9375 C19.17874554 9.10616754 20.04597044 10.27410966 20.9140625 11.44140625 C21.58743652 12.35623779 21.58743652 12.35623779 22.27441406 13.28955078 C24.6872024 16.530224 27.18799148 19.70104726 29.6875 22.875 C30.39060303 23.77460449 30.39060303 23.77460449 31.10791016 24.69238281 C32.88908306 26.96218449 34.64527113 29.14527113 36.6875 31.1875 C37.55943881 32.48826118 38.41081755 33.80286924 39.25 35.125 C42.25042382 39.67986026 45.61251298 43.81287756 49.10546875 47.99609375 C52.81850796 52.51306243 56.25153516 57.25004802 59.70166016 61.96899414 C60.19069824 62.6314917 60.67973633 63.29398926 61.18359375 63.9765625 C61.61857178 64.57162598 62.0535498 65.16668945 62.50170898 65.77978516 C63.65321777 67.33534169 63.65321777 67.33534169 65.6875 68.1875 C66.67422484 69.89782305 67.65826332 71.60987398 68.6171875 73.3359375 C71.38029838 78.16802553 71.38029838 78.16802553 75.9375 81 C76.80375 81.0928125 76.80375 81.0928125 77.6875 81.1875 C77.77 81.89261719 77.8525 82.59773438 77.9375 83.32421875 C78.86709064 86.87312469 80.49249609 89.07202156 82.6875 92 C83.409375 92.97582031 84.13125 93.95164062 84.875 94.95703125 C85.473125 95.69308594 86.07125 96.42914063 86.6875 97.1875 C87.0175 97.1875 87.3475 97.1875 87.6875 97.1875 C87.7337659 85.09636365 87.76933989 73.00524823 87.79112434 60.91404152 C87.80157784 55.3000845 87.81576553 49.68618788 87.83837891 44.07226562 C87.86005154 38.65823139 87.87205681 33.24425538 87.87725449 27.83018112 C87.8809603 25.7608384 87.88819644 23.69149899 87.89896011 21.62218094 C87.91340091 18.73193635 87.91548106 15.8419348 87.91455078 12.95166016 C87.92533661 11.65801796 87.92533661 11.65801796 87.93634033 10.33824158 C88.12689221 5.78658266 88.12689221 5.78658266 85.6875 2.1875 C90.38468718 -0.2787586 94.38901898 0.13408583 99.5 0.5625 C100.28826172 0.61921875 101.07652344 0.6759375 101.88867188 0.734375 C103.82239961 0.87500974 105.75508595 1.02983888 107.6875 1.1875 C107.0275 1.5175 106.3675 1.8475 105.6875 2.1875 C105.6875 43.4375 105.6875 84.6875 105.6875 127.1875 C106.3475 127.5175 107.0075 127.8475 107.6875 128.1875 C103.9375 131.1875 103.9375 131.1875 101.6875 131.1875 C101.6875 130.5275 101.6875 129.8675 101.6875 129.1875 C100.86765625 129.23390625 100.0478125 129.2803125 99.203125 129.328125 C98.12546875 129.36421875 97.0478125 129.4003125 95.9375 129.4375 C94.87015625 129.48390625 93.8028125 129.5303125 92.703125 129.578125 C89.6875 129.1875 89.6875 129.1875 87.296875 127.296875 C85.6875 125.1875 85.6875 125.1875 85.6875 123.1875 C85.0275 123.1875 84.3675 123.1875 83.6875 123.1875 C82.56640625 121.7109375 82.56640625 121.7109375 81.25 119.5625 C78.43011916 115.17987732 75.35347776 111.08395123 72.125 107 C71.66617432 106.41847168 71.20734863 105.83694336 70.73461914 105.23779297 C68.53533007 102.46633434 66.30878602 99.7225523 64.03515625 97.01171875 C62.17729453 94.77672037 60.40457502 92.52986823 58.6875 90.1875 C58.26210937 89.6203125 57.83671875 89.053125 57.3984375 88.46875 C52.828125 82.375 48.2578125 76.28125 43.6875 70.1875 C41.7075 70.6825 41.7075 70.6825 39.6875 71.1875 C39.955625 70.48625 40.22375 69.785 40.5 69.0625 C41.01219123 65.9212306 41.01219123 65.9212306 38.375 63 C36.82791708 61.38095973 35.27097039 59.77097039 33.6875 58.1875 C32.87918714 56.9692155 32.09056079 55.73782398 31.3125 54.5 C27.89529882 49.29404166 24.02199881 44.50135935 20.09033203 39.6809082 C19.5951709 39.07206787 19.10000977 38.46322754 18.58984375 37.8359375 C17.93230103 37.03422119 17.93230103 37.03422119 17.26147461 36.21630859 C15.82160378 34.36035597 14.45132191 32.47396797 13.08912659 30.56069946 C12.41433683 29.61362845 12.41433683 29.61362845 11.72591496 28.6474247 C11.38323802 28.16564955 11.04056108 27.6838744 10.6875 27.1875 C10.66435718 39.78291338 10.64657498 52.37832173 10.63568783 64.97375202 C10.63046326 70.82194582 10.6233733 76.6701251 10.61206055 82.51831055 C10.60121659 88.15927969 10.59521994 93.80023485 10.59262276 99.44121361 C10.59077124 101.59624642 10.58715584 103.75127844 10.58176994 105.90630531 C10.57453954 108.91842952 10.57350991 111.9304955 10.57397461 114.94262695 C10.57037933 115.83886276 10.56678406 116.73509857 10.56307983 117.65849304 C10.5644545 118.47878998 10.56582916 119.29908691 10.56724548 120.14424133 C10.56586279 121.2130603 10.56586279 121.2130603 10.56445217 122.30347157 C10.62234018 124.41490009 10.62234018 124.41490009 11.6875 127.1875 C12.3475 127.5175 13.0075 127.8475 13.6875 128.1875 C12.57890625 128.32027344 11.4703125 128.45304688 10.328125 128.58984375 C8.8645673 128.76809757 7.40102651 128.94649028 5.9375 129.125 C5.20789062 129.21201172 4.47828125 129.29902344 3.7265625 129.38867188 C0.31165558 129.80777409 -2.98853543 130.304774 -6.3125 131.1875 C-6.6425 130.5275 -6.9725 129.8675 -7.3125 129.1875 C-8.3025 128.8575 -9.2925 128.5275 -10.3125 128.1875 C-10.3705476 124.91674117 -10.40611165 121.64611476 -10.4375 118.375 C-10.45425781 117.44623047 -10.47101563 116.51746094 -10.48828125 115.56054688 C-10.49472656 114.66787109 -10.50117187 113.77519531 -10.5078125 112.85546875 C-10.51828613 112.03328857 -10.52875977 111.2111084 -10.53955078 110.36401367 C-10.3125 108.1875 -10.3125 108.1875 -8.3125 105.1875 C-7.85855448 102.90837062 -7.85855448 102.90837062 -7.6875 100.5 C-7.61273437 99.69175781 -7.53796875 98.88351562 -7.4609375 98.05078125 C-7.41195313 97.43589844 -7.36296875 96.82101562 -7.3125 96.1875 C-8.3025 95.8575 -9.2925 95.5275 -10.3125 95.1875 C-9.3125 93.1875 -9.3125 93.1875 -8.3125 92.1875 C-8.6425 92.1875 -8.9725 92.1875 -9.3125 92.1875 C-9.5351746 90.75215159 -9.74011906 89.31404475 -9.9375 87.875 C-10.05351563 87.07449219 -10.16953125 86.27398437 -10.2890625 85.44921875 C-10.3125 83.1875 -10.3125 83.1875 -8.3125 80.1875 C-8.9725 79.5275 -9.6325 78.8675 -10.3125 78.1875 C-8.8275 77.6925 -8.8275 77.6925 -7.3125 77.1875 C-7.9725 76.8575 -8.6325 76.5275 -9.3125 76.1875 C-10.68884409 69.19108423 -10.68884409 69.19108423 -9.375 65.6875 C-9.024375 65.1925 -8.67375 64.6975 -8.3125 64.1875 C-8.9725 63.8575 -9.6325 63.5275 -10.3125 63.1875 C-9.9825 62.1975 -9.6525 61.2075 -9.3125 60.1875 C-8.6525 60.5175 -7.9925 60.8475 -7.3125 61.1875 C-7.65694881 58.71483235 -7.65694881 58.71483235 -8.3125 56.1875 C-8.9725 55.8575 -9.6325 55.5275 -10.3125 55.1875 C-10.1475 54.218125 -9.9825 53.24875 -9.8125 52.25 C-9.45257707 50.22766429 -9.45257707 50.22766429 -9.3125 48.1875 C-9.3125 47.1975 -9.3125 46.2075 -9.3125 45.1875 C-8.6525 45.1875 -7.9925 45.1875 -7.3125 45.1875 C-7.65694881 42.71483235 -7.65694881 42.71483235 -8.3125 40.1875 C-8.9725 39.8575 -9.6325 39.5275 -10.3125 39.1875 C-9.8175 36.2175 -9.8175 36.2175 -9.3125 33.1875 C-8.9825 34.5075 -8.6525 35.8275 -8.3125 37.1875 C-8.3125 26.2975 -8.3125 15.4075 -8.3125 4.1875 C-8.9725 3.8575 -9.6325 3.5275 -10.3125 3.1875 C-10.3125 2.5275 -10.3125 1.8675 -10.3125 1.1875 C-7.07523455 -0.43113273 -3.55293124 0.0029682 0 0 Z M87.6875 98.1875 C88.6875 100.1875 88.6875 100.1875 88.6875 100.1875 Z M-8.3125 113.1875 C-8.3125 117.4775 -8.3125 121.7675 -8.3125 126.1875 C-7.9825 126.1875 -7.6525 126.1875 -7.3125 126.1875 C-7.3125 121.8975 -7.3125 117.6075 -7.3125 113.1875 C-7.6425 113.1875 -7.9725 113.1875 -8.3125 113.1875 Z " fill="#0B2E70" transform="translate(1050.3125,228.8125)"/>
<path d="M0 0 C1.99954746 -0.04254356 4.00041636 -0.04080783 6 0 C6.33 0.33 6.66 0.66 7 1 C8.40506592 1.08258084 9.81426519 1.09642498 11.22167969 1.08178711 C12.12061951 1.0752562 13.01955933 1.06872528 13.94573975 1.06199646 C14.92786438 1.05056107 15.90998901 1.03912567 16.921875 1.02734375 C19.0013003 1.01467696 21.08072748 1.00231757 23.16015625 0.99023438 C26.43804827 0.96560507 29.71584159 0.93785223 32.99365234 0.90405273 C64.11982857 0.60298462 64.11982857 0.60298462 76 7 C77.010625 7.53625 78.02125 8.0725 79.0625 8.625 C79.701875 9.07875 80.34125 9.5325 81 10 C81 10.66 81 11.32 81 12 C81.66 12 82.32 12 83 12 C84.62109375 14.125 84.62109375 14.125 86.4375 17 C87.33275391 18.3921875 87.33275391 18.3921875 88.24609375 19.8125 C91.93200465 26.51117104 93.54165798 32.21897856 93.4375 39.875 C93.42920166 40.66511475 93.42090332 41.45522949 93.41235352 42.26928711 C93.11435805 52.58671716 89.34749105 60.68044617 82 68 C76.6656458 72.08223891 71.75146604 74.706458 65 75 C66.24846488 76.73027536 67.49884402 78.45916957 68.75 80.1875 C69.44609375 81.15042969 70.1421875 82.11335938 70.859375 83.10546875 C73.41803134 86.5652577 75.95442124 89.95442124 79 93 C79.94554181 94.4141289 80.88942477 95.82941392 81.82226562 97.25195312 C84.01337105 100.50409136 86.39130225 103.61843799 88.75 106.75 C89.2756958 107.45084717 89.8013916 108.15169434 90.34301758 108.8737793 C93.97990243 113.70277579 97.70924611 118.43286127 101.57421875 123.08203125 C103 125 103 125 104 128 C104.66 128.33 105.32 128.66 106 129 C106.33 129.99 106.66 130.98 107 132 C106.44570313 131.835 105.89140625 131.67 105.3203125 131.5 C101.94429627 130.77250829 98.6806565 130.98087462 95.2421875 131.0625 C94.17226563 131.041875 93.10234375 131.02125 92 131 C91.21415527 131.01788574 90.42831055 131.03577148 89.61865234 131.05419922 C83.07775859 130.89837601 83.07775859 130.89837601 80.20166016 128.50097656 C78.58597521 126.45143589 77.22126991 124.36047287 75.875 122.125 C74.86505489 120.57651526 73.85463705 119.02833874 72.84375 117.48046875 C72.36292969 116.71911621 71.88210938 115.95776367 71.38671875 115.17333984 C69.47975623 112.18464612 67.44953622 109.3125366 65.375 106.4375 C64.76398438 105.56996094 64.15296875 104.70242188 63.5234375 103.80859375 C63.02070312 103.21175781 62.51796875 102.61492187 62 102 C61.34 102 60.68 102 60 102 C59.814375 101.071875 59.814375 101.071875 59.625 100.125 C59.12802644 97.80879168 59.12802644 97.80879168 57 96 C55.99942392 94.55627184 55.02272288 93.09587576 54.0625 91.625 C50.57010658 85.57676606 50.57010658 85.57676606 45 82 C44.67 80.68 44.34 79.36 44 78 C33.77 77.67 23.54 77.34 13 77 C13.0721875 79.74828125 13.144375 82.4965625 13.21875 85.328125 C13.28861938 88.02896198 13.35795722 90.72981213 13.42724609 93.43066406 C13.47519466 95.28875136 13.52368431 97.14682478 13.57275391 99.00488281 C14.24983516 124.67869859 14.24983516 124.67869859 14 129 C13 130 13 130 9.18359375 130.09765625 C7.60153318 130.09098089 6.01948841 130.07901875 4.4375 130.0625 C3.63119141 130.05798828 2.82488281 130.05347656 1.99414062 130.04882812 C-0.00393756 130.03700518 -2.00197783 130.01906914 -4 130 C-4.67965482 101.49787988 -5.1090866 73.00449354 -5.12338257 44.49465942 C-5.12499297 42.38421153 -5.12854659 40.27377464 -5.13256836 38.16333008 C-5.13956227 34.17917843 -5.13697428 30.19509342 -5.1328125 26.2109375 C-5.13479645 25.03586639 -5.1367804 23.86079529 -5.13882446 22.65011597 C-5.11939796 15.71296903 -4.76027744 8.89603612 -4 2 C-2.68 2 -1.36 2 0 2 C0 1.34 0 0.68 0 0 Z M13 18 C13 31.86 13 45.72 13 60 C15.96732518 61.48366259 18.64844763 61.12991803 21.95703125 61.1328125 C22.65583908 61.13376923 23.35464691 61.13472595 24.07463074 61.13571167 C25.56171762 61.13639338 27.04880747 61.13453973 28.53588867 61.13037109 C30.7655345 61.1251108 32.99497059 61.13026969 35.22460938 61.13671875 C53.36226606 62.18466449 53.36226606 62.18466449 69 55 C73.69870337 49.70071049 75.38152916 44.04193827 75 37 C73.81287469 30.91960209 71.59479503 25.4266923 66.29296875 21.84765625 C61.97550921 19.29353808 58.51534016 17.87250605 53.52856445 17.88647461 C52.62785721 17.88655014 51.72714996 17.88662567 50.79914856 17.88670349 C49.34589424 17.89444542 49.34589424 17.89444542 47.86328125 17.90234375 C46.86870407 17.9037587 45.87412689 17.90517365 44.84941101 17.90663147 C41.67041018 17.91223239 38.49147957 17.92478504 35.3125 17.9375 C33.15820414 17.94251488 31.00390718 17.94707781 28.84960938 17.95117188 C23.56635737 17.96135155 18.28325738 17.98092687 13 18 Z " fill="#0D2F70" transform="translate(516,228)"/>
<path d="M0 0 C3.90030998 0.31061124 7.76609955 0.32974429 11.6796875 0.2890625 C27.81461644 0.2378405 43.03304695 0.49378816 55.28515625 12.32421875 C61.80480854 19.56347946 65.18534051 29.50641807 65.0546875 39.2890625 C64.24276252 49.94557782 61.07259718 59.33278359 53.0703125 66.69140625 C44.25050371 73.6823012 35.69192252 76.51550362 24.56640625 76.73828125 C23.78256058 76.76001907 22.9987149 76.7817569 22.19111633 76.80415344 C20.54329064 76.84777739 18.89534421 76.88704092 17.24731445 76.92211914 C14.75883307 76.97620075 12.27120716 77.04659331 9.78320312 77.11914062 C1.47066229 77.33707941 -6.67807861 77.37482204 -14.9453125 76.2890625 C-14.4503125 77.2790625 -14.4503125 77.2790625 -13.9453125 78.2890625 C-13.83274654 79.71220325 -13.77878878 81.14022549 -13.75585938 82.56762695 C-13.73914185 83.45227127 -13.72242432 84.33691559 -13.7052002 85.24836731 C-13.69162476 86.20667953 -13.67804932 87.16499176 -13.6640625 88.15234375 C-13.64565308 89.13647751 -13.62724365 90.12061127 -13.60827637 91.13456726 C-13.54941256 94.29017041 -13.49667207 97.44582883 -13.4453125 100.6015625 C-13.37756073 104.74360154 -13.30381596 108.88547232 -13.2265625 113.02734375 C-13.21298706 113.97958328 -13.19941162 114.93182281 -13.1854248 115.91291809 C-13.16870728 116.80701889 -13.15198975 117.70111969 -13.13476562 118.62231445 C-13.12223755 119.40459915 -13.10970947 120.18688385 -13.09680176 120.99287415 C-12.93190595 123.49227142 -12.48545778 125.84556021 -11.9453125 128.2890625 C-12.9146875 128.4128125 -13.8840625 128.5365625 -14.8828125 128.6640625 C-15.8934375 128.8703125 -16.9040625 129.0765625 -17.9453125 129.2890625 C-18.4403125 130.2790625 -18.4403125 130.2790625 -18.9453125 131.2890625 C-19.2753125 130.9590625 -19.6053125 130.6290625 -19.9453125 130.2890625 C-25.5500834 130.07579847 -25.5500834 130.07579847 -30.9453125 131.2890625 C-31.95272738 128.26681785 -32.06868542 126.26583549 -32.06556702 123.10688782 C-32.06694168 122.03416626 -32.06831635 120.9614447 -32.06973267 119.85621643 C-32.06613739 118.67945847 -32.06254211 117.5027005 -32.05883789 116.2902832 C-32.05898392 115.05114166 -32.05912994 113.81200012 -32.0592804 112.53530884 C-32.05870265 109.13681078 -32.05368348 105.73837329 -32.04670644 102.33988595 C-32.04045991 98.78845666 -32.03986807 95.23702659 -32.03868103 91.68559265 C-32.03557155 84.96019257 -32.02736332 78.23480873 -32.01733154 71.50941581 C-32.00615851 63.85290407 -32.00065695 56.19639157 -31.99563611 48.53987372 C-31.9851804 32.78959391 -31.96758836 17.0393303 -31.9453125 1.2890625 C-28.96170043 0.93967479 -25.97748827 0.60000755 -22.9921875 0.265625 C-22.15929199 0.16709229 -21.32639648 0.06855957 -20.46826172 -0.03295898 C-13.53597799 -0.79759864 -6.93159728 -0.56614631 0 0 Z M-13.9453125 17.2890625 C-14.2753125 31.4790625 -14.6053125 45.6690625 -14.9453125 60.2890625 C-8.53996241 60.3811522 -2.13693121 60.46071427 4.26855469 60.50878906 C6.44506638 60.52884014 8.62152464 60.55608821 10.79785156 60.59082031 C13.93568143 60.63962462 17.07279585 60.66209688 20.2109375 60.6796875 C21.17584106 60.70033264 22.14074463 60.72097778 23.1348877 60.74224854 C29.29638758 60.74427117 33.91610401 59.81188149 39.0546875 56.2890625 C41.43126475 54.00615437 41.43126475 54.00615437 43.0546875 51.2890625 C43.9209375 50.020625 43.9209375 50.020625 44.8046875 48.7265625 C47.0914432 42.43798432 47.2138567 35.25645335 44.5546875 29.0390625 C44.0596875 28.1315625 43.5646875 27.2240625 43.0546875 26.2890625 C42.0646875 26.6190625 41.0746875 26.9490625 40.0546875 27.2890625 C40.3846875 25.9690625 40.7146875 24.6490625 41.0546875 23.2890625 C38.51693766 21.19661247 38.51693766 21.19661247 37.0546875 21.2890625 C36.5596875 20.2990625 36.5596875 20.2990625 36.0546875 19.2890625 C30.72618358 16.84320944 25.57837321 17.03019937 19.84375 17.09375 C18.39154556 17.09799484 18.39154556 17.09799484 16.91000366 17.10232544 C13.83310322 17.11347554 10.75649922 17.1385707 7.6796875 17.1640625 C5.5872438 17.17409898 3.49479552 17.18322366 1.40234375 17.19140625 C-3.71374637 17.2116921 -8.82919955 17.25085087 -13.9453125 17.2890625 Z " fill="#0D3071" transform="translate(387.9453125,228.7109375)"/>
<path d="M0 0 C1.11503906 0.00644531 2.23007812 0.01289063 3.37890625 0.01953125 C4.89291016 0.10267578 4.89291016 0.10267578 6.4375 0.1875 C7.09121582 0.2093335 7.74493164 0.23116699 8.41845703 0.25366211 C11.7574818 1.79801154 12.51134286 5.05365129 13.80078125 8.296875 C14.10924484 9.03769821 14.41770844 9.77852142 14.73551941 10.54179382 C15.75512566 13.00121798 16.7525207 15.46902786 17.75 17.9375 C18.4622912 19.6685652 19.17585156 21.39910866 19.890625 23.12915039 C21.73564957 27.60675154 23.56156852 32.0918554 25.38043213 36.58013916 C26.38167144 39.04979342 27.38612917 41.51810555 28.39208984 43.98583984 C31.4793121 51.56065164 34.55190757 59.14126978 37.61328125 66.7265625 C41.40864534 76.12817556 45.22645531 85.52052496 49.06445312 94.90481567 C49.76307142 96.61435186 50.46052917 98.32436285 51.15673828 100.03488159 C52.12623129 102.41641994 53.09973185 104.79628274 54.07421875 107.17578125 C54.35589401 107.8700119 54.63756927 108.56424255 54.92778015 109.2795105 C56.88197767 114.03376894 59.09499726 118.6136597 61.4375 123.1875 C62.10536416 124.52023391 62.772351 125.85340891 63.4375 127.1875 C62.4475 127.6825 62.4475 127.6825 61.4375 128.1875 C61.1075 129.1775 60.7775 130.1675 60.4375 131.1875 C59.7775 131.1875 59.1175 131.1875 58.4375 131.1875 C58.4375 130.5275 58.4375 129.8675 58.4375 129.1875 C56.68717156 129.32933696 54.93724466 129.47613429 53.1875 129.625 C52.21296875 129.70621094 51.2384375 129.78742188 50.234375 129.87109375 C47.49844908 130.11383237 47.49844908 130.11383237 45.140625 130.78515625 C44.57859375 130.91792969 44.0165625 131.05070313 43.4375 131.1875 C43.1075 130.8575 42.7775 130.5275 42.4375 130.1875 C40.9525 129.1975 40.9525 129.1975 39.4375 128.1875 C40.0975 127.5275 40.7575 126.8675 41.4375 126.1875 C37.57038277 115.92308955 33.44400763 105.77226358 29.27954102 95.62582397 C28.10213879 92.75679301 26.92683726 89.88690867 25.75195312 87.0168457 C22.14926507 78.21938432 18.5386813 69.42525091 14.90937805 60.63873291 C13.43377294 57.06595953 11.96060948 53.49218134 10.48745728 49.918396 C9.45761991 47.42373809 8.42357971 44.93085026 7.3894043 42.43798828 C6.75939831 40.91056613 6.12958601 39.38306406 5.5 37.85546875 C5.21747879 37.17819229 4.93495758 36.50091583 4.64387512 35.80311584 C2.93634581 31.64461884 1.59753405 27.52116583 0.4375 23.1875 C-0.2225 23.1875 -0.8825 23.1875 -1.5625 23.1875 C-1.70075195 23.71939941 -1.83900391 24.25129883 -1.98144531 24.79931641 C-4.3640486 33.34668509 -7.86154085 41.40866742 -11.3125 49.5625 C-11.9785694 51.14707043 -12.64408631 52.73187321 -13.30908203 54.31689453 C-14.69314233 57.61452445 -16.07957129 60.91114288 -17.46777344 64.20703125 C-20.49051247 71.38809684 -23.4874821 78.57988867 -26.4831543 85.77227783 C-27.43105728 88.04703886 -28.38043389 90.32118026 -29.33007812 92.59521484 C-32.05113019 99.1161403 -34.75748036 105.64140374 -37.3984375 112.1953125 C-37.81367676 113.22414551 -38.22891602 114.25297852 -38.65673828 115.31298828 C-39.39756976 117.15552098 -40.13338594 119.00008286 -40.86279297 120.84716797 C-43.91930517 128.45520872 -43.91930517 128.45520872 -46.5625 131.1875 C-47.2225 131.1875 -47.8825 131.1875 -48.5625 131.1875 C-48.5625 130.5275 -48.5625 129.8675 -48.5625 129.1875 C-50.66698938 129.32859986 -52.7710877 129.47554175 -54.875 129.625 C-56.04675781 129.70621094 -57.21851563 129.78742188 -58.42578125 129.87109375 C-61.58840958 130.0742371 -61.58840958 130.0742371 -64.5625 131.1875 C-64.5625 129.5375 -64.5625 127.8875 -64.5625 126.1875 C-63.9025 126.1875 -63.2425 126.1875 -62.5625 126.1875 C-62.39134674 125.64775543 -62.22019348 125.10801086 -62.04385376 124.5519104 C-60.18181645 118.80922103 -58.01288734 113.26327878 -55.6484375 107.7109375 C-55.27703644 106.83022583 -54.90563538 105.94951416 -54.52297974 105.04211426 C-53.33048883 102.21444109 -52.1339677 99.38849243 -50.9375 96.5625 C-45.43840031 83.53784134 -39.95174112 70.52593129 -35.02490234 57.27099609 C-32.76661646 51.28955823 -32.76661646 51.28955823 -30.5625 50.1875 C-30.18520407 48.53023217 -29.85836449 46.86122432 -29.5625 45.1875 C-29.03937218 43.67900298 -28.4753754 42.18419266 -27.87597656 40.7043457 C-27.53181702 39.85028641 -27.18765747 38.99622711 -26.83306885 38.11628723 C-26.46018738 37.20779526 -26.08730591 36.29930328 -25.703125 35.36328125 C-25.31686951 34.4206694 -24.93061401 33.47805756 -24.53265381 32.50688171 C-23.71495696 30.51964536 -22.89443736 28.53356846 -22.07128906 26.54858398 C-20.81530627 23.50679632 -19.58350462 20.45588534 -18.3515625 17.40429688 C-17.55356677 15.47334461 -16.75413592 13.54298468 -15.953125 11.61328125 C-15.58834045 10.69871658 -15.22355591 9.78415192 -14.84771729 8.84187317 C-12.20206121 2.57862257 -12.20206121 2.57862257 -8.98754883 0.61279297 C-5.94693812 0.07954583 -3.08796832 -0.03935997 0 0 Z " fill="#0C2E6F" transform="translate(920.5625,228.8125)"/>
<path d="M0 0 C2.86967192 0.53806348 5.16311269 0.50310253 8.0625 0.375 C12.6563144 0.3476965 12.6563144 0.3476965 15.5 2.125 C17.35727136 5.14306596 18.09876196 8.15067029 19 11.5625 C19.99 12.0575 19.99 12.0575 21 12.5625 C21.67358398 14.21362305 21.67358398 14.21362305 22.30859375 16.38671875 C24.15454397 22.2347166 26.60331154 27.76282504 29.0625 33.375 C34.50673782 45.93054939 39.71636782 58.57471778 44.875 71.25 C50.51508048 85.10099736 56.20964965 98.92490501 62.0625 112.6875 C62.36226746 113.39280853 62.66203491 114.09811707 62.97088623 114.82479858 C65.84596064 121.75780087 65.84596064 121.75780087 69 128.5625 C66.76352369 129.68073815 65.35108471 129.75646061 62.8671875 129.87890625 C61.65869141 129.94174805 61.65869141 129.94174805 60.42578125 130.00585938 C59.58402344 130.04517578 58.74226562 130.08449219 57.875 130.125 C57.02550781 130.16818359 56.17601562 130.21136719 55.30078125 130.25585938 C53.20071777 130.36204236 51.10038052 130.46278497 49 130.5625 C48.61328125 129.51191406 48.2265625 128.46132813 47.828125 127.37890625 C44.06661504 117.18829544 44.06661504 117.18829544 39.6640625 107.26171875 C39 105.5625 39 105.5625 39 102.5625 C38.34 102.2325 37.68 101.9025 37 101.5625 C36.31323242 99.88061523 36.31323242 99.88061523 35.66796875 97.68359375 C33.92806465 92.15510048 31.64740886 86.92416317 29.3125 81.625 C28.49278695 79.76317114 27.67621144 77.89995669 26.86328125 76.03515625 C26.50532471 75.22312744 26.14736816 74.41109863 25.77856445 73.57446289 C25 71.5625 25 71.5625 25 69.5625 C23.68 69.8925 22.36 70.2225 21 70.5625 C21.495 69.0775 21.495 69.0775 22 67.5625 C22 64.62950165 21.63343141 63.29882719 20.5390625 60.65625 C20.23226562 59.91246094 19.92546875 59.16867187 19.609375 58.40234375 C19.12210938 57.24412109 19.12210938 57.24412109 18.625 56.0625 C18.30789063 55.29035156 17.99078125 54.51820313 17.6640625 53.72265625 C16.28891714 50.4165776 14.99773641 47.55910461 13 44.5625 C12.50132851 43.22266286 12.04647862 41.86608659 11.625 40.5 C10.22194697 36.11096231 8.54549505 31.87924657 6.76953125 27.62890625 C6 25.5625 6 25.5625 6 23.5625 C5.34 23.5625 4.68 23.5625 4 23.5625 C4.226875 24.325625 4.45375 25.08875 4.6875 25.875 C4.8421875 27.2053125 4.8421875 27.2053125 5 28.5625 C4.02633342 29.58815754 3.02294906 30.58598824 2 31.5625 C0.77424198 34.15746751 -0.34402951 36.72482483 -1.4140625 39.3828125 C-1.74125778 40.17786194 -2.06845306 40.97291138 -2.40556335 41.79205322 C-3.48571804 44.42105609 -4.55533319 47.0542145 -5.625 49.6875 C-6.37578489 51.52065705 -7.1273422 53.35349792 -7.87963867 55.18603516 C-9.05283456 58.04477932 -10.22521127 60.90384132 -11.39463806 63.76412964 C-14.1589122 70.52504781 -16.951171 77.27382103 -19.76171875 84.015625 C-20.14581909 84.93773773 -20.52991943 85.85985046 -20.92565918 86.80990601 C-22.41682329 90.38953227 -23.90809937 93.96910804 -25.40240479 97.54742432 C-26.43336089 100.01763421 -27.46176864 102.48887801 -28.48828125 104.9609375 C-28.80462524 105.72193756 -29.12096924 106.48293762 -29.44689941 107.26699829 C-31.54638868 112.35684614 -33.46801517 117.48502513 -35.19995117 122.71337891 C-36 124.5625 -36 124.5625 -38 125.5625 C-38.65213292 127.58713255 -38.65213292 127.58713255 -39 129.5625 C-39.66 129.5625 -40.32 129.5625 -41 129.5625 C-41 130.2225 -41 130.8825 -41 131.5625 C-45.29 130.9025 -49.58 130.2425 -54 129.5625 C-54 130.2225 -54 130.8825 -54 131.5625 C-55.65 131.5625 -57.3 131.5625 -59 131.5625 C-59.47743482 126.86772429 -57.80612182 123.75111043 -55.625 119.75 C-52.25103179 113.26819208 -49.27619034 106.69599206 -46.5 99.9375 C-46.09096436 98.94258545 -45.68192871 97.9476709 -45.26049805 96.92260742 C-44.35173703 94.70999383 -43.44348232 92.49717224 -42.53564453 90.28417969 C-39.54785482 83.02494643 -36.48658754 75.79613396 -33.4375 68.5625 C-33.1031897 67.76912231 -32.76887939 66.97574463 -32.42443848 66.1583252 C-30.32163709 61.16866533 -28.21670512 56.17990801 -26.11029053 51.19177246 C-25.35692712 49.40773702 -24.60371772 47.62363654 -23.85064697 45.83947754 C-21.52776457 40.3366304 -19.20167388 34.83515719 -16.87136841 29.33544922 C-16.13097594 27.58711955 -15.3914364 25.83842841 -14.65280151 24.08935547 C-13.62000228 21.64443597 -12.58385539 19.20096102 -11.546875 16.7578125 C-11.24646805 16.04480988 -10.9460611 15.33180725 -10.6365509 14.59719849 C-4.04668149 -0.88521158 -4.04668149 -0.88521158 0 0 Z " fill="#0D2F6F" transform="translate(731,228.4375)"/>
<path d="M0 0 C0.76828125 -0.01224609 1.5365625 -0.02449219 2.328125 -0.03710938 C3.07320312 -0.03904297 3.81828125 -0.04097656 4.5859375 -0.04296875 C5.60373291 -0.04913208 5.60373291 -0.04913208 6.64208984 -0.05541992 C8.625 0.1875 8.625 0.1875 12.625 2.1875 C6.355 2.1875 0.085 2.1875 -6.375 2.1875 C-6.375 43.7675 -6.375 85.3475 -6.375 128.1875 C-1.425 128.1875 3.525 128.1875 8.625 128.1875 C8.625 93.8675 8.625 59.5475 8.625 24.1875 C11.32242014 26.88492014 10.85692639 28.95861195 10.86273193 32.6222229 C10.85397034 33.52669159 10.84520874 34.43116028 10.83618164 35.36303711 C10.8348674 36.3143602 10.83355316 37.26568329 10.8321991 38.24583435 C10.8256883 41.40227052 10.80524564 44.55846731 10.78515625 47.71484375 C10.77888875 49.90197996 10.7736477 52.08911933 10.76939392 54.27626038 C10.75606574 60.04390627 10.73162238 65.81144708 10.70404053 71.57904053 C10.66098962 80.80829747 10.63123582 90.03758268 10.6079998 99.26690865 C10.59775231 102.49706531 10.58070239 105.72713678 10.56300354 108.95726013 C10.55617662 110.93236209 10.54956787 112.90746482 10.54321289 114.88256836 C10.53310684 116.23623505 10.53310684 116.23623505 10.52279663 117.61724854 C10.52128098 118.44306931 10.51976532 119.26889008 10.51820374 120.11973572 C10.51292459 121.19571974 10.51292459 121.19571974 10.5075388 122.29344082 C10.55760495 124.41348331 10.55760495 124.41348331 11.625 127.1875 C12.285 127.5175 12.945 127.8475 13.625 128.1875 C12.51640625 128.32027344 11.4078125 128.45304688 10.265625 128.58984375 C8.8020673 128.76809757 7.33852651 128.94649028 5.875 129.125 C5.14539062 129.21201172 4.41578125 129.29902344 3.6640625 129.38867188 C0.24915558 129.80777409 -3.05103543 130.304774 -6.375 131.1875 C-6.705 130.5275 -7.035 129.8675 -7.375 129.1875 C-8.365 128.8575 -9.355 128.5275 -10.375 128.1875 C-10.4330476 124.91674117 -10.46861165 121.64611476 -10.5 118.375 C-10.51675781 117.44623047 -10.53351563 116.51746094 -10.55078125 115.56054688 C-10.55722656 114.66787109 -10.56367187 113.77519531 -10.5703125 112.85546875 C-10.58078613 112.03328857 -10.59125977 111.2111084 -10.60205078 110.36401367 C-10.375 108.1875 -10.375 108.1875 -8.375 105.1875 C-7.92105448 102.90837062 -7.92105448 102.90837062 -7.75 100.5 C-7.67523437 99.69175781 -7.60046875 98.88351562 -7.5234375 98.05078125 C-7.47445313 97.43589844 -7.42546875 96.82101562 -7.375 96.1875 C-8.365 95.8575 -9.355 95.5275 -10.375 95.1875 C-9.375 93.1875 -9.375 93.1875 -8.375 92.1875 C-8.705 92.1875 -9.035 92.1875 -9.375 92.1875 C-9.5976746 90.75215159 -9.80261906 89.31404475 -10 87.875 C-10.11601563 87.07449219 -10.23203125 86.27398437 -10.3515625 85.44921875 C-10.375 83.1875 -10.375 83.1875 -8.375 80.1875 C-9.035 79.5275 -9.695 78.8675 -10.375 78.1875 C-8.89 77.6925 -8.89 77.6925 -7.375 77.1875 C-8.035 76.8575 -8.695 76.5275 -9.375 76.1875 C-10.75134409 69.19108423 -10.75134409 69.19108423 -9.4375 65.6875 C-9.086875 65.1925 -8.73625 64.6975 -8.375 64.1875 C-9.035 63.8575 -9.695 63.5275 -10.375 63.1875 C-10.045 62.1975 -9.715 61.2075 -9.375 60.1875 C-8.715 60.5175 -8.055 60.8475 -7.375 61.1875 C-7.71944881 58.71483235 -7.71944881 58.71483235 -8.375 56.1875 C-9.035 55.8575 -9.695 55.5275 -10.375 55.1875 C-10.21 54.218125 -10.045 53.24875 -9.875 52.25 C-9.51507707 50.22766429 -9.51507707 50.22766429 -9.375 48.1875 C-9.375 47.1975 -9.375 46.2075 -9.375 45.1875 C-8.715 45.1875 -8.055 45.1875 -7.375 45.1875 C-7.71944881 42.71483235 -7.71944881 42.71483235 -8.375 40.1875 C-9.035 39.8575 -9.695 39.5275 -10.375 39.1875 C-9.88 36.2175 -9.88 36.2175 -9.375 33.1875 C-9.045 34.5075 -8.715 35.8275 -8.375 37.1875 C-8.375 26.2975 -8.375 15.4075 -8.375 4.1875 C-9.035 3.8575 -9.695 3.5275 -10.375 3.1875 C-10.375 2.5275 -10.375 1.8675 -10.375 1.1875 C-7.12230549 -0.43884726 -3.570215 0.00296529 0 0 Z M-8.375 113.1875 C-8.375 117.4775 -8.375 121.7675 -8.375 126.1875 C-8.045 126.1875 -7.715 126.1875 -7.375 126.1875 C-7.375 121.8975 -7.375 117.6075 -7.375 113.1875 C-7.705 113.1875 -8.035 113.1875 -8.375 113.1875 Z " fill="#365486" transform="translate(1050.375,228.8125)"/>
<path d="M0 0 C21.12 0 42.24 0 64 0 C64 0.33 64 0.66 64 1 C43.54 1 23.08 1 2 1 C2 41.92 2 82.84 2 125 C5.96 125 9.92 125 14 125 C14 108.17 14 91.34 14 74 C14.33 74 14.66 74 15 74 C15.33 91.49 15.66 108.98 16 127 C15.01 127 14.02 127 13 127 C12.505 127.99 12.505 127.99 12 129 C11.67 128.67 11.34 128.34 11 128 C5.3952291 127.78673597 5.3952291 127.78673597 0 129 C0 86.43 0 43.86 0 0 Z " fill="#07174E" transform="translate(357,231)"/>
<path d="M0 0 C4.95 0 9.9 0 15 0 C15 41.58 15 83.16 15 126 C14.67 126 14.34 126 14 126 C14 84.75 14 43.5 14 1 C10.04 1 6.08 1 2 1 C2 33.01 2 65.02 2 98 C1.67 98 1.34 98 1 98 C0.33809788 80.66027688 -0.16237009 63.35555901 0 46 C-0.66 45.67 -1.32 45.34 -2 45 C-1.34 45 -0.68 45 0 45 C0 30.15 0 15.3 0 0 Z " fill="#020F47" transform="translate(1140,231)"/>
<path d="M0 0 C0.76828125 -0.01224609 1.5365625 -0.02449219 2.328125 -0.03710938 C3.07320312 -0.03904297 3.81828125 -0.04097656 4.5859375 -0.04296875 C5.60373291 -0.04913208 5.60373291 -0.04913208 6.64208984 -0.05541992 C8.625 0.1875 8.625 0.1875 12.625 2.1875 C6.355 2.1875 0.085 2.1875 -6.375 2.1875 C-6.375 30.8975 -6.375 59.6075 -6.375 89.1875 C-7.035 89.1875 -7.695 89.1875 -8.375 89.1875 C-8.705 90.1775 -9.035 91.1675 -9.375 92.1875 C-9.5976746 90.75215159 -9.80261906 89.31404475 -10 87.875 C-10.11601563 87.07449219 -10.23203125 86.27398437 -10.3515625 85.44921875 C-10.375 83.1875 -10.375 83.1875 -8.375 80.1875 C-9.035 79.5275 -9.695 78.8675 -10.375 78.1875 C-8.89 77.6925 -8.89 77.6925 -7.375 77.1875 C-8.035 76.8575 -8.695 76.5275 -9.375 76.1875 C-10.75134409 69.19108423 -10.75134409 69.19108423 -9.4375 65.6875 C-9.086875 65.1925 -8.73625 64.6975 -8.375 64.1875 C-9.035 63.8575 -9.695 63.5275 -10.375 63.1875 C-10.045 62.1975 -9.715 61.2075 -9.375 60.1875 C-8.715 60.5175 -8.055 60.8475 -7.375 61.1875 C-7.71944881 58.71483235 -7.71944881 58.71483235 -8.375 56.1875 C-9.035 55.8575 -9.695 55.5275 -10.375 55.1875 C-10.21 54.218125 -10.045 53.24875 -9.875 52.25 C-9.51507707 50.22766429 -9.51507707 50.22766429 -9.375 48.1875 C-9.375 47.1975 -9.375 46.2075 -9.375 45.1875 C-8.715 45.1875 -8.055 45.1875 -7.375 45.1875 C-7.71944881 42.71483235 -7.71944881 42.71483235 -8.375 40.1875 C-9.035 39.8575 -9.695 39.5275 -10.375 39.1875 C-9.88 36.2175 -9.88 36.2175 -9.375 33.1875 C-9.045 34.5075 -8.715 35.8275 -8.375 37.1875 C-8.375 26.2975 -8.375 15.4075 -8.375 4.1875 C-9.035 3.8575 -9.695 3.5275 -10.375 3.1875 C-10.375 2.5275 -10.375 1.8675 -10.375 1.1875 C-7.12230549 -0.43884726 -3.570215 0.00296529 0 0 Z " fill="#1A4D74" transform="translate(1050.375,228.8125)"/>
<path d="M0 0 C1.43352212 0.00015908 2.86704998 0.00585132 4.30053711 0.01586914 C5.43041298 0.01799156 5.43041298 0.01799156 6.58311462 0.02015686 C8.99807646 0.02577163 11.41294687 0.03832656 13.82788086 0.05102539 C15.46134307 0.05603849 17.09480672 0.06060173 18.72827148 0.06469727 C22.74067671 0.07574585 26.75301326 0.09302033 30.76538086 0.11352539 C30.43538086 0.77352539 30.10538086 1.43352539 29.76538086 2.11352539 C19.20538086 1.78352539 8.64538086 1.45352539 -2.23461914 1.11352539 C-2.16243164 3.9455957 -2.09024414 6.77766602 -2.01586914 9.69555664 C-1.94604014 12.47248535 -1.87668461 15.24942552 -1.80737305 18.02636719 C-1.75936426 19.9397911 -1.71087192 21.85320295 -1.66186523 23.76660156 C-1.16140631 43.3304603 -1.16140631 43.3304603 -1.23461914 53.11352539 C-4.53461914 53.11352539 -7.83461914 53.11352539 -11.23461914 53.11352539 C-11.23461914 52.78352539 -11.23461914 52.45352539 -11.23461914 52.11352539 C-8.92461914 52.11352539 -6.61461914 52.11352539 -4.23461914 52.11352539 C-4.23683975 51.47681412 -4.23906036 50.84010284 -4.24134827 50.18409729 C-4.26339954 43.58237263 -4.27852507 36.98065835 -4.28955078 30.37890625 C-4.2945927 27.91210506 -4.30142605 25.44530687 -4.31005859 22.97851562 C-4.32213039 19.4414801 -4.3278487 15.90448394 -4.33227539 12.36743164 C-4.33743668 11.25703018 -4.34259796 10.14662872 -4.34791565 9.00257874 C-4.34799118 7.98159592 -4.34806671 6.9606131 -4.34814453 5.90869141 C-4.35036514 5.0049025 -4.35258575 4.10111359 -4.35487366 3.16993713 C-4.15411669 -0.26310638 -3.53322899 0.1240057 0 0 Z " fill="#0C2361" transform="translate(531.234619140625,302.886474609375)"/>
<path d="M0 0 C4.80472105 2.3029525 6.27252482 5.00788716 8.75 9.625 C10.69127113 12.86367051 12.39006536 15.45577003 16.07275391 16.70068359 C21.05481324 17.51314904 25.98052607 17.35153606 31 17 C31.33 16.34 31.66 15.68 32 15 C32.99 15 33.98 15 35 15 C35 15.99 35 16.98 35 18 C35.66 18.33 36.32 18.66 37 19 C37.495 20.485 37.495 20.485 38 22 C37.44570313 21.835 36.89140625 21.67 36.3203125 21.5 C32.94429627 20.77250829 29.6806565 20.98087462 26.2421875 21.0625 C25.17226563 21.041875 24.10234375 21.02125 23 21 C21.82884644 21.03552979 21.82884644 21.03552979 20.6340332 21.07177734 C16.822651 21.00067081 14.06409873 20.9064142 11.08886719 18.37207031 C9.36358246 16.20095979 7.88754009 13.98831435 6.4375 11.625 C5.91865234 10.84382813 5.39980469 10.06265625 4.86523438 9.2578125 C2.85255174 6.18485391 1.1659607 3.49788209 0 0 Z " fill="#1F3367" transform="translate(585,338)"/>
<path d="M0 0 C3.65399834 3.51095926 6.83010324 7.19515627 9.875 11.25 C10.74723549 12.39725734 11.61963223 13.5443921 12.4921875 14.69140625 C12.9159668 15.25102051 13.33974609 15.81063477 13.77636719 16.38720703 C15.50411987 18.6644485 17.24937892 20.9278071 19 23.1875 C19.53625 23.88230469 20.0725 24.57710937 20.625 25.29296875 C22.03738977 27.10879745 22.03738977 27.10879745 24 29 C25.09228917 30.45730733 26.15186729 31.93939948 27.1875 33.4375 C27.73792969 34.21996094 28.28835938 35.00242187 28.85546875 35.80859375 C29.23316406 36.53175781 29.61085938 37.25492187 30 38 C29.67 38.99 29.34 39.98 29 41 C22.19837641 32.60650706 15.52081109 24.14560866 9.09863281 15.45703125 C8.63424805 14.83054688 8.16986328 14.2040625 7.69140625 13.55859375 C7.02455811 12.65729736 7.02455811 12.65729736 6.34423828 11.73779297 C5.01327432 10.01716066 3.59957177 8.40826797 2.15234375 6.78515625 C0 4 0 4 0 0 Z " fill="#182D62" transform="translate(1063,231)"/>
<path d="M0 0 C2.40763133 2.40763133 2.259489 2.98799923 2.30297852 6.27856445 C2.31962051 7.16320877 2.33626251 8.04785309 2.35340881 8.95930481 C2.36182297 9.91761703 2.37023712 10.87592926 2.37890625 11.86328125 C2.39590073 12.84741501 2.4128952 13.83154877 2.43040466 14.84550476 C2.4836601 18.00110399 2.52385939 21.15669059 2.5625 24.3125 C2.60649144 27.45752737 2.65331057 30.6024548 2.70530701 33.74736023 C2.73713468 35.70611601 2.76406443 37.66495894 2.78553772 39.62385559 C2.79902756 40.51795639 2.8125174 41.41205719 2.82641602 42.33325195 C2.83592789 43.11553665 2.84543976 43.89782135 2.85523987 44.70381165 C3.01293465 47.20516965 3.45850855 49.55537481 4 52 C2.68 51.67 1.36 51.34 0 51 C0 34.17 0 17.34 0 0 Z " fill="#273F77" transform="translate(372,305)"/>
<path d="M0 0 C0.33 0 0.66 0 1 0 C1 12.87 1 25.74 1 39 C6.28 39 11.56 39 17 39 C17 39.33 17 39.66 17 40 C15.77023437 40.09087891 15.77023437 40.09087891 14.515625 40.18359375 C13.43796875 40.26738281 12.3603125 40.35117187 11.25 40.4375 C10.18265625 40.51871094 9.1153125 40.59992188 8.015625 40.68359375 C5.56320038 40.94090773 3.36078709 41.31812218 1 42 C0.67 41.34 0.34 40.68 0 40 C-0.99 39.67 -1.98 39.34 -3 39 C-3.0580476 35.72924117 -3.09361165 32.45861476 -3.125 29.1875 C-3.14175781 28.25873047 -3.15851563 27.32996094 -3.17578125 26.37304688 C-3.18222656 25.48037109 -3.18867187 24.58769531 -3.1953125 23.66796875 C-3.20578613 22.84578857 -3.21625977 22.0236084 -3.22705078 21.17651367 C-3 19 -3 19 -1 16 C-0.54605448 13.72087062 -0.54605448 13.72087062 -0.375 11.3125 C-0.30023437 10.50425781 -0.22546875 9.69601562 -0.1484375 8.86328125 C-0.09945313 8.24839844 -0.05046875 7.63351562 0 7 C-0.99 6.67 -1.98 6.34 -3 6 C-2.67 5.34 -2.34 4.68 -2 4 C-1.34 4 -0.68 4 0 4 C0 2.68 0 1.36 0 0 Z M-1 24 C-1 28.29 -1 32.58 -1 37 C-0.67 37 -0.34 37 0 37 C0 32.71 0 28.42 0 24 C-0.33 24 -0.66 24 -1 24 Z " fill="#3A5891" transform="translate(1043,318)"/>
<path d="M0 0 C0.66 0.33 1.32 0.66 2 1 C0.9024777 3.99324263 0.32317108 4.84610901 -2.625 6.25 C-3.40875 6.4975 -4.1925 6.745 -5 7 C-5 6.34 -5 5.68 -5 5 C-5.94617188 5.16242188 -6.89234375 5.32484375 -7.8671875 5.4921875 C-12.61783676 6.16744302 -17.33449984 6.14925789 -22.125 6.125 C-23.04627686 6.12306641 -23.96755371 6.12113281 -24.91674805 6.11914062 C-31.98420868 6.07461729 -38.96709927 5.73069098 -46 5 C-46 4.67 -46 4.34 -46 4 C-38.86755079 3.35054121 -31.81234694 2.95598416 -24.6484375 3.0390625 C-23.54234131 3.05130859 -22.43624512 3.06355469 -21.29663086 3.07617188 C-19.08366752 3.10833938 -16.87084979 3.15359013 -14.65844727 3.21289062 C-8.87201158 3.29590849 -5.09151497 3.05992525 0 0 Z " fill="#203C74" transform="translate(425,285)"/>
<path d="M0 0 C0.76828125 -0.01224609 1.5365625 -0.02449219 2.328125 -0.03710938 C3.07320312 -0.03904297 3.81828125 -0.04097656 4.5859375 -0.04296875 C5.60373291 -0.04913208 5.60373291 -0.04913208 6.64208984 -0.05541992 C8.625 0.1875 8.625 0.1875 12.625 2.1875 C6.355 2.1875 0.085 2.1875 -6.375 2.1875 C-6.375 15.7175 -6.375 29.2475 -6.375 43.1875 C-7.695 41.8675 -9.015 40.5475 -10.375 39.1875 C-10.125 35.9375 -10.125 35.9375 -9.375 33.1875 C-9.045 34.5075 -8.715 35.8275 -8.375 37.1875 C-8.375 26.2975 -8.375 15.4075 -8.375 4.1875 C-9.035 3.8575 -9.695 3.5275 -10.375 3.1875 C-10.375 2.5275 -10.375 1.8675 -10.375 1.1875 C-7.12230549 -0.43884726 -3.570215 0.00296529 0 0 Z " fill="#2C527B" transform="translate(1050.375,228.8125)"/>
<path d="M0 0 C0.33 0 0.66 0 1 0 C1.98125077 17.01418752 2.11689329 33.96235278 2 51 C1.01 50.34 0.02 49.68 -1 49 C-1.35644531 46.7512207 -1.35644531 46.7512207 -1.328125 43.92578125 C-1.32135742 42.35062744 -1.32135742 42.35062744 -1.31445312 40.74365234 C-1.29318359 39.61137207 -1.27191406 38.4790918 -1.25 37.3125 C-1.23904297 36.15959473 -1.22808594 35.00668945 -1.21679688 33.81884766 C-1.07493599 22.53628102 -0.60880775 11.26618179 0 0 Z " fill="#254074" transform="translate(1139,277)"/>
<path d="M0 0 C0.66 0.99 1.32 1.98 2 3 C2.515625 3.45375 3.03125 3.9075 3.5625 4.375 C5.42004095 6.4748289 5.63023426 8.2637335 6 11 C5.34 11 4.68 11 4 11 C3.67 11.99 3.34 12.98 3 14 C2.34 14 1.68 14 1 14 C1 13.34 1 12.68 1 12 C-0.75032844 12.14183696 -2.50025534 12.28863429 -4.25 12.4375 C-5.71179688 12.55931641 -5.71179688 12.55931641 -7.203125 12.68359375 C-9.56461753 12.95074584 -11.71901065 13.35371968 -14 14 C-14 13.01 -14 12.02 -14 11 C-8.39 11 -2.78 11 3 11 C-1.00222119 10.19955576 -4.96005961 9.55450162 -9 9 C-9 8.67 -9 8.34 -9 8 C-5.535 7.505 -5.535 7.505 -2 7 C-2.04125 6.21625 -2.0825 5.4325 -2.125 4.625 C-2 2 -2 2 0 0 Z " fill="#254780" transform="translate(978,346)"/>
<path d="M0 0 C2.36944378 2.92082378 3.86355052 5.71783607 5.26171875 9.203125 C5.65810547 10.1828125 6.05449219 11.1625 6.46289062 12.171875 C7.06907227 13.69554687 7.06907227 13.69554687 7.6875 15.25 C8.10322266 16.28125 8.51894531 17.3125 8.94726562 18.375 C9.97015545 20.91458854 10.98751599 23.45624902 12 26 C11.01 26.33 10.02 26.66 9 27 C7.48555494 23.44347078 5.99103689 19.87889906 4.5 16.3125 C4.07074219 15.30509766 3.64148438 14.29769531 3.19921875 13.25976562 C2.79316406 12.28330078 2.38710938 11.30683594 1.96875 10.30078125 C1.59169922 9.40528564 1.21464844 8.50979004 0.82617188 7.5871582 C-0.03079756 4.90355742 -0.15873016 2.79761902 0 0 Z " fill="#172A5F" transform="translate(950,320)"/>
<path d="M0 0 C4.32753919 0.51227054 6.4508581 1.87287374 9.625 4.8125 C10.75808594 5.84310547 10.75808594 5.84310547 11.9140625 6.89453125 C13.85850258 8.85717769 15.56996639 10.63420613 17 13 C16.67 13.99 16.34 14.98 16 16 C14.62437146 14.71034824 13.29233607 13.37310707 12 12 C12 11.34 12 10.68 12 10 C11.34 10 10.68 10 10 10 C8.33333333 8.33333333 6.66666667 6.66666667 5 5 C4.071875 4.443125 3.14375 3.88625 2.1875 3.3125 C1.465625 2.879375 0.74375 2.44625 0 2 C0 1.34 0 0.68 0 0 Z " fill="#182C65" transform="translate(431,234)"/>
<path d="M0 0 C3 1 3 1 5 5 C-1.27 5 -7.54 5 -14 5 C-14 4.34 -14 3.68 -14 3 C-9.38 3 -4.76 3 0 3 C0 2.01 0 1.02 0 0 Z " fill="#0A1B4E" transform="translate(795,352)"/>
<path d="M0 0 C4.15050444 3.90635712 8.02455804 8.11250427 11 13 C11 13.99 11 14.98 11 16 C10.34 16 9.68 16 9 16 C7.59765625 14.171875 7.59765625 14.171875 6.0625 11.75 C4.54632065 9.37684971 3.07117995 7.08876946 1.30859375 4.890625 C0 3 0 3 0 0 Z " fill="#182B62" transform="translate(1125,336)"/>
<path d="M0 0 C3.1872935 2.6325728 4.32797386 5.70098209 5.8125 9.5 C6.27269531 10.6446875 6.73289062 11.789375 7.20703125 12.96875 C7.46871094 13.9690625 7.73039063 14.969375 8 16 C7.34 16.99 6.68 17.98 6 19 C4.99141578 16.58660204 3.99297327 14.16981325 3 11.75 C2.57074219 10.72712891 2.57074219 10.72712891 2.1328125 9.68359375 C0.70654506 6.18584265 0 3.83099811 0 0 Z " fill="#142760" transform="translate(933,279)"/>
<path d="M0 0 C0.99 0 1.98 0 3 0 C4.31640625 1.49609375 4.31640625 1.49609375 5.5625 3.4375 C7.30536929 6.23259721 7.30536929 6.23259721 10 8 C11.1875 9.8125 11.1875 9.8125 12 12 C11.55078125 14.13671875 11.55078125 14.13671875 11 16 C9.53763907 14.0862931 8.08005754 12.16924767 6.625 10.25 C6.2125 9.71117187 5.8 9.17234375 5.375 8.6171875 C3.28315355 5.85055187 1.40435582 3.1790912 0 0 Z " fill="#13285D" transform="translate(1106,289)"/>
<path d="M0 0 C0 0.66 0 1.32 0 2 C2.97 2 5.94 2 9 2 C9 2.33 9 2.66 9 3 C7.19402344 3.09087891 7.19402344 3.09087891 5.3515625 3.18359375 C3.77602923 3.26799732 2.20050904 3.35264541 0.625 3.4375 C-0.1690625 3.47681641 -0.963125 3.51613281 -1.78125 3.55664062 C-6.02601221 3.68893404 -6.02601221 3.68893404 -10 5 C-9.625 2.5625 -9.625 2.5625 -9 0 C-5.93109813 -1.53445094 -3.29905734 -0.54984289 0 0 Z " fill="#020D42" transform="translate(736,229)"/>
<path d="M0 0 C6.75 1.875 6.75 1.875 9 3 C9 3.66 9 4.32 9 5 C9.66 5 10.32 5 11 5 C12.625 7 12.625 7 14 9 C13.67 9.66 13.34 10.32 13 11 C11.2925002 9.71937515 9.62626404 8.38232443 8 7 C8 6.34 8 5.68 8 5 C6.865625 4.731875 5.73125 4.46375 4.5625 4.1875 C3.386875 3.795625 2.21125 3.40375 1 3 C0.67 2.01 0.34 1.02 0 0 Z " fill="#142960" transform="translate(588,235)"/>
<path d="M0 0 C3 1 3 1 4.16796875 3.328125 C4.50441406 4.29234375 4.84085938 5.2565625 5.1875 6.25 C5.70376953 7.68085938 5.70376953 7.68085938 6.23046875 9.140625 C6.97603391 11.91094835 7.15085479 14.14936469 7 17 C4.55213773 14.55213773 3.69919356 12.25682658 2.375 9.0625 C1.70597656 7.47115234 1.70597656 7.47115234 1.0234375 5.84765625 C0 3 0 3 0 0 Z " fill="#1B3169" transform="translate(770,331)"/>
<path d="M0 0 C1.71948485 2.96948578 2.22039127 4.91452225 1.9765625 8.328125 C1.925 9.12734375 1.8734375 9.9265625 1.8203125 10.75 C1.75585938 11.575 1.69140625 12.4 1.625 13.25 C1.56828125 14.09046875 1.5115625 14.9309375 1.453125 15.796875 C1.31209668 17.86529042 1.15738212 19.9327646 1 22 C0.34 21.67 -0.32 21.34 -1 21 C-1.0269501 18.06243881 -1.04681474 15.12512445 -1.0625 12.1875 C-1.07087891 11.35412109 -1.07925781 10.52074219 -1.08789062 9.66210938 C-1.09111328 8.85966797 -1.09433594 8.05722656 -1.09765625 7.23046875 C-1.10289307 6.49207764 -1.10812988 5.75368652 -1.11352539 4.99291992 C-1 3 -1 3 0 0 Z " fill="#074695" transform="translate(1041,334)"/>
<path d="M0 0 C2.31 0.66 4.62 1.32 7 2 C7.66666667 5.33333333 8.33333333 8.66666667 9 12 C5.74483572 8.83525695 2.67991207 5.67247209 0 2 C0 1.34 0 0.68 0 0 Z " fill="#0F2353" transform="translate(1121,308)"/>
<path d="M0 0 C0 0.66 0 1.32 0 2 C-4.96993194 4.43425238 -8.34605369 5.34615998 -14 5 C-14 4.34 -14 3.68 -14 3 C-12.23050388 2.49528803 -10.45934777 1.99639315 -8.6875 1.5 C-7.70136719 1.2215625 -6.71523438 0.943125 -5.69921875 0.65625 C-3 0 -3 0 0 0 Z " fill="#122D64" transform="translate(433,299)"/>
<path d="M0 0 C0.99 0.33 1.98 0.66 3 1 C4.1875 4.5625 4.1875 4.5625 5 8 C2.69 8.33 0.38 8.66 -2 9 C-1 6 -1 6 0 5 C0.04063832 3.33382885 0.042721 1.66611905 0 0 Z " fill="#0E2660" transform="translate(754,290)"/>
<path d="M0 0 C3.95680442 2.08831345 6.58783295 4.19619811 9 8 C8.6015625 10.16015625 8.6015625 10.16015625 8 12 C6.66081194 10.37982158 5.3288031 8.75370657 4 7.125 C3.2575 6.22007812 2.515 5.31515625 1.75 4.3828125 C0 2 0 2 0 0 Z " fill="#152960" transform="translate(600,332)"/>
<path d="M0 0 C0.99 0.33 1.98 0.66 3 1 C2.01 4.3 1.02 7.6 0 11 C-0.99 10.01 -1.98 9.02 -3 8 C-1.125 1.125 -1.125 1.125 0 0 Z " fill="#183471" transform="translate(720,281)"/>
<path d="M0 0 C2.08954032 4.17908064 2.16552619 4.80410573 1 9 C2.32 9.33 3.64 9.66 5 10 C-0.75 10.125 -0.75 10.125 -3 9 C-2.01 6.03 -1.02 3.06 0 0 Z " fill="#17366F" transform="translate(677,345)"/>
<path d="M0 0 C1.485 0.99 1.485 0.99 3 2 C3.1875 5.125 3.1875 5.125 3 8 C2.34 8 1.68 8 1 8 C0.67 8.99 0.34 9.98 0 11 C-0.19491452 9.54263913 -0.38069358 8.08405407 -0.5625 6.625 C-0.66691406 5.81289063 -0.77132813 5.00078125 -0.87890625 4.1640625 C-1 2 -1 2 0 0 Z " fill="#0D5060" transform="translate(1041,310)"/>
<path d="M0 0 C0 0.66 0 1.32 0 2 C-1.96875 3.5078125 -1.96875 3.5078125 -4.5 5.125 C-5.3353125 5.66382813 -6.170625 6.20265625 -7.03125 6.7578125 C-7.6809375 7.16773438 -8.330625 7.57765625 -9 8 C-9.66 7.67 -10.32 7.34 -11 7 C-4.35 0 -4.35 0 0 0 Z " fill="#10265D" transform="translate(589,281)"/>
<path d="M0 0 C1.32 0.33 2.64 0.66 4 1 C4 1.66 4 2.32 4 3 C5.29233607 4.37310707 6.62437146 5.71034824 8 7 C7.67 7.99 7.34 8.98 7 10 C7 9.34 7 8.68 7 8 C6.34 8 5.68 8 5 8 C4.34 7.34 3.68 6.68 3 6 C2.34 6 1.68 6 1 6 C0.67 4.02 0.34 2.04 0 0 Z " fill="#122363" transform="translate(427,250)"/>
<path d="M0 0 C3.51463012 1.89980007 5.89550678 3.56635317 8 7 C8 7.66 8 8.32 8 9 C3.84606362 7.06149636 1.69104681 4.66960929 -1 1 C-0.67 0.67 -0.34 0.34 0 0 Z " fill="#142A5D" transform="translate(1110,318)"/>
<path d="M0 0 C2.72107452 2.3500189 3.96702492 4.55674975 5 8 C4.67 8.99 4.34 9.98 4 11 C4 10.34 4 9.68 4 9 C2.68 8.34 1.36 7.68 0 7 C0 4.69 0 2.38 0 0 Z " fill="#0F2153" transform="translate(744,267)"/>
<path d="M0 0 C3.05936637 3.75467691 5 7.08113061 5 12 C4.34 12 3.68 12 3 12 C-0.42857143 4.71428571 -0.42857143 4.71428571 0 0 Z " fill="#12255A" transform="translate(739,254)"/>
<path d="M0 0 C1.21386936 3.64160808 0.6674695 4.33165469 -0.9375 7.6875 C-1.31777344 8.49574219 -1.69804688 9.30398438 -2.08984375 10.13671875 C-2.39019531 10.75160156 -2.69054687 11.36648438 -3 12 C-3.33 12 -3.66 12 -4 12 C-4.50423019 6.70558305 -3.18923033 4.18586481 0 0 Z " fill="#0F205F" transform="translate(896,265)"/>
<path d="M0 0 C0.99 0.33 1.98 0.66 3 1 C3.94921875 3.06640625 3.94921875 3.06640625 4.6875 5.5625 C4.93886719 6.38878906 5.19023438 7.21507812 5.44921875 8.06640625 C5.63097656 8.70449219 5.81273437 9.34257812 6 10 C5.01 9.67 4.02 9.34 3 9 C2.05078125 6.93359375 2.05078125 6.93359375 1.3125 4.4375 C1.06113281 3.61121094 0.80976562 2.78492188 0.55078125 1.93359375 C0.36902344 1.29550781 0.18726563 0.65742188 0 0 Z " fill="#172E65" transform="translate(789,338)"/>
<path d="M0 0 C4.61487965 1.45733042 4.61487965 1.45733042 6.375 3.9375 C7 6 7 6 6 9 C4.99406757 7.8803014 3.9954151 6.7540588 3 5.625 C2.443125 4.99851562 1.88625 4.37203125 1.3125 3.7265625 C0 2 0 2 0 0 Z " fill="#0F2358" transform="translate(1086,263)"/>
<path d="M0 0 C3.5 0.125 3.5 0.125 7 1 C8.5 2.875 8.5 2.875 9 5 C8.67 5.99 8.34 6.98 8 8 C8 7.34 8 6.68 8 6 C7.34 6 6.68 6 6 6 C5.67 5.01 5.34 4.02 5 3 C2.69 2.67 0.38 2.34 -2 2 C-1.34 1.34 -0.68 0.68 0 0 Z " fill="#243D67" transform="translate(924,229)"/>
<path d="M0 0 C0.66 0 1.32 0 2 0 C1.125 6.75 1.125 6.75 0 9 C-0.99 8.67 -1.98 8.34 -3 8 C-2.01 5.36 -1.02 2.72 0 0 Z " fill="#112662" transform="translate(895,303)"/>
<path d="M0 0 C3.39914975 1.13304992 4.05254451 2.12518475 6 5 C5.34 6.32 4.68 7.64 4 9 C3.71125 8.38125 3.4225 7.7625 3.125 7.125 C2.06279958 4.86674235 2.06279958 4.86674235 0 3 C0 2.01 0 1.02 0 0 Z " fill="#12205B" transform="translate(573,321)"/>
<path d="M0 0 C0 0.33 0 0.66 0 1 C-3.63 1.66 -7.26 2.32 -11 3 C-11 2.01 -11 1.02 -11 0 C-7.18243176 -1.37432457 -3.92744671 -0.67975039 0 0 Z " fill="#233862" transform="translate(921,230)"/>
<path d="M0 0 C2 1 2 1 2.8515625 3.06640625 C3.10679687 3.89011719 3.36203125 4.71382813 3.625 5.5625 C3.88539063 6.38878906 4.14578125 7.21507812 4.4140625 8.06640625 C4.60742188 8.70449219 4.80078125 9.34257812 5 10 C4.01 10 3.02 10 2 10 C1.34 6.7 0.68 3.4 0 0 Z " fill="#0D1F54" transform="translate(776,343)"/>
<path d="M0 0 C0.99 0.33 1.98 0.66 3 1 C4.3125 3.875 4.3125 3.875 5 7 C4.01 8.485 4.01 8.485 3 10 C0 3.375 0 3.375 0 0 Z " fill="#1E326B" transform="translate(943,305)"/>
<path d="M0 0 C2.96404505 2.80804268 5.44499019 5.18315774 7 9 C3.64564078 7.61198929 1.88709697 6.11371 0 3 C0 2.01 0 1.02 0 0 Z " fill="#112257" transform="translate(1077,274)"/>
<path d="M0 0 C0.33 0 0.66 0 1 0 C0.54177532 3.46941546 0.10868317 6.67395049 -1 10 C-1.99 9.67 -2.98 9.34 -4 9 C-2.68 6.03 -1.36 3.06 0 0 Z " fill="#11245B" transform="translate(914,259)"/>
<path d="M0 0 C1.33332095 2.6666419 0.67102033 4.16680303 0 7 C-0.66 7 -1.32 7 -2 7 C-2.33 7.99 -2.66 8.98 -3 10 C-2.88637738 8.5199159 -2.75877092 7.04089926 -2.625 5.5625 C-2.55539062 4.73878906 -2.48578125 3.91507812 -2.4140625 3.06640625 C-2.27742187 2.38449219 -2.14078125 1.70257813 -2 1 C-1.34 0.67 -0.68 0.34 0 0 Z " fill="#213977" transform="translate(695,347)"/>
<path d="M0 0 C3.65316671 1.24976756 4.78065836 1.67098753 7 5 C6.67 5.99 6.34 6.98 6 8 C4.02 5.36 2.04 2.72 0 0 Z " fill="#10245B" transform="translate(578,304)"/>
<path d="M0 0 C-5.17578125 3.22265625 -5.17578125 3.22265625 -7 4 C-7.99 3.67 -8.98 3.34 -10 3 C-9.34 3 -8.68 3 -8 3 C-8 2.34 -8 1.68 -8 1 C-4.93251126 -0.86240388 -3.40254489 -1.2151946 0 0 Z " fill="#1C3166" transform="translate(595,298)"/>
<path d="M0 0 C1.65 1.65 3.3 3.3 5 5 C2.8614515 7.1385485 1.86724686 7.42655063 -1 8 C-0.835 7.236875 -0.67 6.47375 -0.5 5.6875 C0.09145396 2.96403764 0.09145396 2.96403764 0 0 Z " fill="#102153" transform="translate(1091,292)"/>
<path d="M0 0 C1 3 1 3 -0.4375 6.1875 C-1.2109375 7.5796875 -1.2109375 7.5796875 -2 9 C-2.33 9 -2.66 9 -3 9 C-3.36923077 3.46153846 -3.36923077 3.46153846 -1.5 1.125 C-1.005 0.75375 -0.51 0.3825 0 0 Z " fill="#0E2063" transform="translate(710,271)"/>
<path d="M0 0 C2.46800047 1.15173355 4.04783565 2.04783565 6 4 C5.625 6.125 5.625 6.125 5 8 C0 2.25 0 2.25 0 0 Z " fill="#0F275D" transform="translate(1073,246)"/>
<path d="M0 0 C0.33 0.66 0.66 1.32 1 2 C1.66 2.33 2.32 2.66 3 3 C3.625 6.0625 3.625 6.0625 4 9 C1 8 1 8 -0.25 5.625 C-1 3 -1 3 0 0 Z " fill="#1C3065" transform="translate(749,238)"/>
<path d="M0 0 C3.2542015 2.83430453 4.5206753 4.68607774 5 9 C4.34 9 3.68 9 3 9 C2.01 6.03 1.02 3.06 0 0 Z " fill="#152558" transform="translate(1131,343)"/>
<path d="M0 0 C0.33 0 0.66 0 1 0 C0.67 2.64 0.34 5.28 0 8 C-0.99 8.33 -1.98 8.66 -3 9 C-2.44271087 5.65626525 -1.64826111 2.96687001 0 0 Z " fill="#11255D" transform="translate(885,329)"/>
<path d="M0 0 C2.96 4.44 2.96 4.44 4 7 C3.67 7.99 3.34 8.98 3 10 C2.34 9.67 1.68 9.34 1 9 C0.5859375 6.93359375 0.5859375 6.93359375 0.375 4.4375 C0.30023437 3.61121094 0.22546875 2.78492188 0.1484375 1.93359375 C0.09945312 1.29550781 0.05046875 0.65742188 0 0 Z " fill="#1B3167" transform="translate(961,305)"/>
<path d="M0 0 C4.875 4.625 4.875 4.625 6 8 C3.53199953 6.84826645 1.95216435 5.95216435 0 4 C0 2.68 0 1.36 0 0 Z " fill="#10225A" transform="translate(1099,302)"/>
<path d="M0 0 C0.99 0.33 1.98 0.66 3 1 C1.515 4.465 1.515 4.465 0 8 C-0.33 8 -0.66 8 -1 8 C-0.67 5.36 -0.34 2.72 0 0 Z " fill="#0D265B" transform="translate(900,252)"/>
<path d="M0 0 C3.93846154 3.32307692 3.93846154 3.32307692 4.25 6.75 C4.1675 7.4925 4.085 8.235 4 9 C1.49701566 6.06171403 0.53069061 3.82097239 0 0 Z " fill="#10235B" transform="translate(974,340)"/>
<path d="M0 0 C2.6855594 2.6855594 3.06049974 5.37621328 4 9 C3.01 8.67 2.02 8.34 1 8 C-0.35439668 5.29120665 -0.06501451 2.99066732 0 0 Z " fill="#1D356A" transform="translate(972,332)"/>
<path d="M0 0 C2.4375 1.1875 2.4375 1.1875 5 3 C5.8125 5.6875 5.8125 5.6875 6 8 C1.125 3.375 1.125 3.375 0 0 Z " fill="#0D2358" transform="translate(591,320)"/>
<path d="M0 0 C3.93846154 3.32307692 3.93846154 3.32307692 4.25 6.75 C4.1675 7.4925 4.085 8.235 4 9 C1.49701566 6.06171403 0.53069061 3.82097239 0 0 Z " fill="#102159" transform="translate(781,318)"/>
<path d="M0 0 C4 1 4 1 6 4 C5.67 4.99 5.34 5.98 5 7 C3.35 4.69 1.7 2.38 0 0 Z " fill="#1A3067" transform="translate(1103,310)"/>
<path d="M0 0 C1.41687119 4.25061356 0.19320039 6.71851625 -1 11 C-2.1875 9.4375 -2.1875 9.4375 -3 7 C-1.625 3.25 -1.625 3.25 0 0 Z " fill="#182C72" transform="translate(698,296)"/>
<path d="M0 0 C0.33 0.66 0.66 1.32 1 2 C-0.98 4.97 -0.98 4.97 -3 8 C-3.75 6.25 -3.75 6.25 -4 4 C-2.0625 1.75 -2.0625 1.75 0 0 Z " fill="#1A316C" transform="translate(448,283)"/>
<path d="M0 0 C2.6855594 2.6855594 3.06049974 5.37621328 4 9 C3.01 8.67 2.02 8.34 1 8 C-0.35439668 5.29120665 -0.06501451 2.99066732 0 0 Z " fill="#1F336C" transform="translate(940,254)"/>
<path d="M0 0 C0.99 0.33 1.98 0.66 3 1 C3 1.66 3 2.32 3 3 C2.34 3 1.68 3 1 3 C0.34 4.32 -0.32 5.64 -1 7 C-2 4 -2 4 -1.0625 1.8125 C-0.5365625 0.9153125 -0.5365625 0.9153125 0 0 Z " fill="#1A316D" transform="translate(918,249)"/>
<path d="M0 0 C0 0.66 0 1.32 0 2 C-4.455 2.495 -4.455 2.495 -9 3 C-8.67 2.01 -8.34 1.02 -8 0 C-5.13822943 -1.43088528 -3.06624227 -0.59991697 0 0 Z " fill="#26426E" transform="translate(735,229)"/>
<path d="M0 0 C0.99 0.33 1.98 0.66 3 1 C2.67 1.66 2.34 2.32 2 3 C1.34 3 0.68 3 0 3 C0 2.01 0 1.02 0 0 Z " fill="#000036" transform="translate(1088,296)"/>
<path d="M0 0 C1.98 0 3.96 0 6 0 C6 0.33 6 0.66 6 1 C4.02 1 2.04 1 0 1 C0 0.67 0 0.34 0 0 Z " fill="#0A1F3F" transform="translate(567,247)"/>
<path d="M0 0 C0.99 0 1.98 0 3 0 C2.67 0.99 2.34 1.98 2 3 C1.34 2.01 0.68 1.02 0 0 Z " fill="#003131" transform="translate(1040,225)"/>
<path d="M0 0 C0.99 0.495 0.99 0.495 2 1 C1.01 2.485 1.01 2.485 0 4 C0 2.68 0 1.36 0 0 Z " fill="#002A43" transform="translate(688,312)"/>
<path d="M0 0 C0.66 0 1.32 0 2 0 C1.67 0.99 1.34 1.98 1 3 C0.67 2.01 0.34 1.02 0 0 Z " fill="#001919" transform="translate(1040,234)"/>
<path d="M0 0 C0 3 0 3 0 3 Z " fill="#0000BF" transform="translate(1041,330)"/>
<path d="M0 0 C1 4 1 4 1 4 Z " fill="#001F3F" transform="translate(569,319)"/>
<path d="M0 0 C0 3 0 3 0 3 Z " fill="#004A8A" transform="translate(1137,302)"/>
<path d="M0 0 C0.33 0.99 0.66 1.98 1 3 C0.34 2.67 -0.32 2.34 -1 2 C-0.67 1.34 -0.34 0.68 0 0 Z " fill="#002F3F" transform="translate(1137,296)"/>
<path d="M0 0 C0.99 0.495 0.99 0.495 2 1 C1.34 1.66 0.68 2.32 0 3 C0 2.01 0 1.02 0 0 Z " fill="#003535" transform="translate(704,264)"/>
<path d="M0 0 C0 3 0 3 0 3 Z " fill="#001F1F" transform="translate(1041,250)"/>
<path d="M0 0 C4 1 4 1 4 1 Z " fill="#001515" transform="translate(404,247)"/>
<path d="M0 0 C4 1 4 1 4 1 Z " fill="#001F1F" transform="translate(397,247)"/>
<path d="M0 0 C1.485 0.99 1.485 0.99 3 2 C2.01 2 1.02 2 0 2 C0 1.34 0 0.68 0 0 Z " fill="#003554" transform="translate(1141,227)"/>
<path d="M0 0 C1.485 0.99 1.485 0.99 3 2 C2.01 2 1.02 2 0 2 C0 1.34 0 0.68 0 0 Z " fill="#00001F" transform="translate(570,227)"/>
<path d="M0 0 C0.99 0.495 0.99 0.495 2 1 C1.67 1.66 1.34 2.32 1 3 C0.67 2.01 0.34 1.02 0 0 Z " fill="#155454" transform="translate(1044,226)"/>
<path d="M0 0 C3 1 3 1 3 1 Z " fill="#15152A" transform="translate(1140,359)"/>
<path d="M0 0 C3 1 3 1 3 1 Z " fill="#2D6868" transform="translate(1056,359)"/>
<path d="M0 0 C3 1 3 1 3 1 Z " fill="#315B8D" transform="translate(791,359)"/>
<path d="M0 0 C3 1 3 1 3 1 Z " fill="#71718D" transform="translate(678,359)"/>
<path d="M0 0 C3 1 3 1 3 1 Z " fill="#1C46B8" transform="translate(518,359)"/>
<path d="" fill="#00718D" transform="translate(0,0)"/>
<path d="M0 0 C0.33 0.66 0.66 1.32 1 2 C0.34 1.67 -0.32 1.34 -1 1 C-0.67 0.67 -0.34 0.34 0 0 Z " fill="#004671" transform="translate(946,318)"/>
<path d="M0 0 C0.99 0.495 0.99 0.495 2 1 C1.01 1.495 1.01 1.495 0 2 C0 1.34 0 0.68 0 0 Z " fill="#00002A" transform="translate(1104,315)"/>
<path d="M0 0 C0.66 0.66 1.32 1.32 2 2 C1.34 2 0.68 2 0 2 C0 1.34 0 0.68 0 0 Z " fill="#00002A" transform="translate(752,300)"/>
<path d="M0 0 C0.66 0.66 1.32 1.32 2 2 C1.34 2 0.68 2 0 2 C0 1.34 0 0.68 0 0 Z " fill="#000000" transform="translate(696,289)"/>
<path d="" fill="#004646" transform="translate(0,0)"/>
<path d="" fill="#001C71" transform="translate(0,0)"/>
<path d="M0 0 C0.66 0 1.32 0 2 0 C1.67 0.66 1.34 1.32 1 2 C0.67 1.34 0.34 0.68 0 0 Z " fill="#000000" transform="translate(1136,271)"/>
<path d="" fill="#007171" transform="translate(0,0)"/>
<path d="" fill="#007F7F" transform="translate(0,0)"/>
<path d="" fill="#002A2A" transform="translate(0,0)"/>
<path d="" fill="#004646" transform="translate(0,0)"/>
<path d="" fill="#002A2A" transform="translate(0,0)"/>
<path d="M0 0 C3 1 3 1 3 1 Z " fill="#000000" transform="translate(551,247)"/>
<path d="M0 0 C3 1 3 1 3 1 Z " fill="#005454" transform="translate(412,247)"/>
<path d="M0 0 C3 1 3 1 3 1 Z " fill="#153F54" transform="translate(391,247)"/>
<path d="M0 0 C3 1 3 1 3 1 Z " fill="#113B76" transform="translate(375,247)"/>
<path d="" fill="#000000" transform="translate(0,0)"/>
<path d="" fill="#007F7F" transform="translate(0,0)"/>
<path d="M0 0 C2 1 2 1 2 1 Z " fill="#000000" transform="translate(1090,363)"/>
<path d="M0 0 C2 1 2 1 2 1 Z " fill="#1F5F7F" transform="translate(1136,359)"/>
<path d="" fill="#003F3F" transform="translate(0,0)"/>
<path d="M0 0 C2 1 2 1 2 1 Z " fill="#1F1FBF" transform="translate(960,359)"/>
<path d="M0 0 C2 1 2 1 2 1 Z " fill="#7F7F7F" transform="translate(860,359)"/>
<path d="M0 0 C2 1 2 1 2 1 Z " fill="#2A6A94" transform="translate(784,359)"/>
<path d="M0 0 C2 1 2 1 2 1 Z " fill="#6A6A94" transform="translate(616,359)"/>
<path d="M0 0 C2 1 2 1 2 1 Z " fill="#4A4A94" transform="translate(512,359)"/>
<path d="" fill="#152ABF" transform="translate(0,0)"/>
<path d="" fill="#4A4A94" transform="translate(0,0)"/>
<path d="" fill="#007F7F" transform="translate(0,0)"/>
<path d="" fill="#1F5F7F" transform="translate(0,0)"/>
<path d="" fill="#1F5F7F" transform="translate(0,0)"/>
<path d="" fill="#000000" transform="translate(0,0)"/>
<path d="" fill="#003F3F" transform="translate(0,0)"/>
<path d="" fill="#1F5F7F" transform="translate(0,0)"/>
<path d="" fill="#00003F" transform="translate(0,0)"/>
<path d="" fill="#003F3F" transform="translate(0,0)"/>
<path d="" fill="#000000" transform="translate(0,0)"/>
<path d="M0 0 C2 1 2 1 2 1 Z " fill="#003F7F" transform="translate(1113,326)"/>
<path d="M0 0 C2 1 2 1 2 1 Z " fill="#00003F" transform="translate(752,303)"/>
<path d="" fill="#002A2A" transform="translate(0,0)"/>
<path d="" fill="#000000" transform="translate(0,0)"/>
<path d="" fill="#00007F" transform="translate(0,0)"/>
<path d="" fill="#1F1F3F" transform="translate(0,0)"/>
<path d="" fill="#00007F" transform="translate(0,0)"/>
<path d="" fill="#002A2A" transform="translate(0,0)"/>
<path d="M0 0 C2 1 2 1 2 1 Z " fill="#000000" transform="translate(736,258)"/>
<path d="" fill="#002A2A" transform="translate(0,0)"/>
<path d="" fill="#003F3F" transform="translate(0,0)"/>
<path d="" fill="#000000" transform="translate(0,0)"/>
<path d="M0 0 C2 1 2 1 2 1 Z " fill="#006A6A" transform="translate(563,247)"/>
<path d="M0 0 C2 1 2 1 2 1 Z " fill="#000000" transform="translate(556,247)"/>
<path d="M0 0 C2 1 2 1 2 1 Z " fill="#000000" transform="translate(547,247)"/>
<path d="M0 0 C2 1 2 1 2 1 Z " fill="#002A2A" transform="translate(544,247)"/>
<path d="M0 0 C2 1 2 1 2 1 Z " fill="#000000" transform="translate(383,247)"/>
<path d="M0 0 C2 1 2 1 2 1 Z " fill="#000000" transform="translate(933,231)"/>
<path d="M0 0 C2 1 2 1 2 1 Z " fill="#000000" transform="translate(404,228)"/>
<path d="" fill="#000000" transform="translate(0,0)"/>
<path d="M0 0 C2 1 2 1 2 1 Z " fill="#000000" transform="translate(1090,219)"/>
<path d="" fill="#000000" transform="translate(0,0)"/>
<path d="M0 0 C2 1 2 1 2 1 Z " fill="#000000" transform="translate(1090,187)"/>
<path d="" fill="#000000" transform="translate(0,0)"/>
<path d="" fill="#000000" transform="translate(0,0)"/>
<path d="" fill="#000000" transform="translate(0,0)"/>
<path d="" fill="#FFFFFF" transform="translate(0,0)"/>
<path d="" fill="#000000" transform="translate(0,0)"/>
<path d="" fill="#0000FF" transform="translate(0,0)"/>
<path d="" fill="#0000FF" transform="translate(0,0)"/>
<path d="" fill="#7F7F7F" transform="translate(0,0)"/>
<path d="" fill="#0000FF" transform="translate(0,0)"/>
<path d="" fill="#0000FF" transform="translate(0,0)"/>
<path d="" fill="#7F7F7F" transform="translate(0,0)"/>
<path d="" fill="#0000FF" transform="translate(0,0)"/>
<path d="" fill="#FFFFFF" transform="translate(0,0)"/>
<path d="" fill="#000000" transform="translate(0,0)"/>
<path d="" fill="#FFFFFF" transform="translate(0,0)"/>
<path d="" fill="#0000FF" transform="translate(0,0)"/>
<path d="" fill="#0000FF" transform="translate(0,0)"/>
<path d="" fill="#0000FF" transform="translate(0,0)"/>
<path d="" fill="#000000" transform="translate(0,0)"/>
<path d="" fill="#0000FF" transform="translate(0,0)"/>
<path d="" fill="#007F7F" transform="translate(0,0)"/>
<path d="" fill="#0000FF" transform="translate(0,0)"/>
<path d="" fill="#0000FF" transform="translate(0,0)"/>
<path d="" fill="#0000FF" transform="translate(0,0)"/>
<path d="" fill="#0000FF" transform="translate(0,0)"/>
<path d="" fill="#0000FF" transform="translate(0,0)"/>
<path d="" fill="#0000FF" transform="translate(0,0)"/>
<path d="" fill="#0000FF" transform="translate(0,0)"/>
<path d="" fill="#0000FF" transform="translate(0,0)"/>
<path d="" fill="#0000FF" transform="translate(0,0)"/>
<path d="" fill="#7F7F7F" transform="translate(0,0)"/>
<path d="" fill="#0000FF" transform="translate(0,0)"/>
<path d="" fill="#7F7F7F" transform="translate(0,0)"/>
<path d="" fill="#0000FF" transform="translate(0,0)"/>
<path d="" fill="#5555AA" transform="translate(0,0)"/>
<path d="" fill="#000000" transform="translate(0,0)"/>
<path d="" fill="#555555" transform="translate(0,0)"/>
<path d="" fill="#0000FF" transform="translate(0,0)"/>
<path d="" fill="#000000" transform="translate(0,0)"/>
<path d="" fill="#FFFFFF" transform="translate(0,0)"/>
<path d="" fill="#0000FF" transform="translate(0,0)"/>
<path d="" fill="#0000FF" transform="translate(0,0)"/>
<path d="" fill="#7F7F7F" transform="translate(0,0)"/>
<path d="" fill="#0000FF" transform="translate(0,0)"/>
<path d="" fill="#000000" transform="translate(0,0)"/>
<path d="" fill="#0000FF" transform="translate(0,0)"/>
<path d="" fill="#0000FF" transform="translate(0,0)"/>
<path d="" fill="#000000" transform="translate(0,0)"/>
<path d="" fill="#3F3F7F" transform="translate(0,0)"/>
<path d="" fill="#0000FF" transform="translate(0,0)"/>
<path d="" fill="#333366" transform="translate(0,0)"/>
<path d="" fill="#0000FF" transform="translate(0,0)"/>
<path d="" fill="#007F7F" transform="translate(0,0)"/>
<path d="" fill="#0000FF" transform="translate(0,0)"/>
<path d="" fill="#007F7F" transform="translate(0,0)"/>
<path d="" fill="#000000" transform="translate(0,0)"/>
<path d="" fill="#007F7F" transform="translate(0,0)"/>
<path d="" fill="#000000" transform="translate(0,0)"/>
<path d="" fill="#555555" transform="translate(0,0)"/>
<path d="" fill="#0000FF" transform="translate(0,0)"/>
<path d="" fill="#0000FF" transform="translate(0,0)"/>
<path d="" fill="#0000FF" transform="translate(0,0)"/>
<path d="" fill="#007F7F" transform="translate(0,0)"/>
<path d="" fill="#0000FF" transform="translate(0,0)"/>
<path d="" fill="#000000" transform="translate(0,0)"/>
<path d="" fill="#000000" transform="translate(0,0)"/>
<path d="" fill="#0000FF" transform="translate(0,0)"/>
<path d="" fill="#007F7F" transform="translate(0,0)"/>
<path d="" fill="#007F7F" transform="translate(0,0)"/>
<path d="" fill="#000000" transform="translate(0,0)"/>
<path d="" fill="#000000" transform="translate(0,0)"/>
<path d="" fill="#000000" transform="translate(0,0)"/>
<path d="" fill="#007F7F" transform="translate(0,0)"/>
<path d="" fill="#000000" transform="translate(0,0)"/>
<path d="" fill="#005555" transform="translate(0,0)"/>
<path d="" fill="#0000FF" transform="translate(0,0)"/>
<path d="" fill="#005555" transform="translate(0,0)"/>
<path d="" fill="#007F7F" transform="translate(0,0)"/>
<path d="" fill="#FFFFFF" transform="translate(0,0)"/>
<path d="" fill="#007F7F" transform="translate(0,0)"/>
<path d="" fill="#007F7F" transform="translate(0,0)"/>
<path d="" fill="#0000FF" transform="translate(0,0)"/>
<path d="" fill="#000000" transform="translate(0,0)"/>
<path d="" fill="#000000" transform="translate(0,0)"/>
<path d="" fill="#000000" transform="translate(0,0)"/>
<path d="" fill="#007F7F" transform="translate(0,0)"/>
<path d="" fill="#007F7F" transform="translate(0,0)"/>
<path d="" fill="#000000" transform="translate(0,0)"/>
<path d="" fill="#000000" transform="translate(0,0)"/>
<path d="" fill="#000000" transform="translate(0,0)"/>
<path d="" fill="#007F7F" transform="translate(0,0)"/>
<path d="" fill="#000000" transform="translate(0,0)"/>
<path d="" fill="#007F7F" transform="translate(0,0)"/>
<path d="" fill="#007F7F" transform="translate(0,0)"/>
<path d="" fill="#000000" transform="translate(0,0)"/>
<path d="" fill="#000000" transform="translate(0,0)"/>
<path d="" fill="#000000" transform="translate(0,0)"/>
<path d="" fill="#000000" transform="translate(0,0)"/>
<path d="" fill="#FFFFFF" transform="translate(0,0)"/>
<path d="" fill="#000000" transform="translate(0,0)"/>
<path d="" fill="#007F7F" transform="translate(0,0)"/>
<path d="" fill="#000000" transform="translate(0,0)"/>
<path d="" fill="#000000" transform="translate(0,0)"/>
<path d="" fill="#000000" transform="translate(0,0)"/>
<path d="" fill="#007F7F" transform="translate(0,0)"/>
<path d="" fill="#000000" transform="translate(0,0)"/>
<path d="" fill="#000000" transform="translate(0,0)"/>
<path d="" fill="#000000" transform="translate(0,0)"/>
<path d="" fill="#000000" transform="translate(0,0)"/>
<path d="" fill="#000000" transform="translate(0,0)"/>
<path d="" fill="#000000" transform="translate(0,0)"/>
<path d="" fill="#000000" transform="translate(0,0)"/>
<path d="" fill="#000000" transform="translate(0,0)"/>
<path d="" fill="#000000" transform="translate(0,0)"/>
<path d="" fill="#000000" transform="translate(0,0)"/>
<path d="" fill="#FFFFFF" transform="translate(0,0)"/>
<path d="" fill="#000000" transform="translate(0,0)"/>
<path d="" fill="#333366" transform="translate(0,0)"/>
<path d="" fill="#000000" transform="translate(0,0)"/>
<path d="" fill="#000000" transform="translate(0,0)"/>
<path d="" fill="#000000" transform="translate(0,0)"/>
<path d="" fill="#007F7F" transform="translate(0,0)"/>
<path d="" fill="#000000" transform="translate(0,0)"/>
<path d="" fill="#007F7F" transform="translate(0,0)"/>
<path d="" fill="#000000" transform="translate(0,0)"/>
<path d="" fill="#005555" transform="translate(0,0)"/>
<path d="" fill="#000000" transform="translate(0,0)"/>
<path d="" fill="#000000" transform="translate(0,0)"/>
<path d="" fill="#0000FF" transform="translate(0,0)"/>
<path d="" fill="#005555" transform="translate(0,0)"/>
<path d="" fill="#000000" transform="translate(0,0)"/>
<path d="" fill="#000000" transform="translate(0,0)"/>
<path d="" fill="#007F7F" transform="translate(0,0)"/>
<path d="" fill="#007F7F" transform="translate(0,0)"/>
<path d="" fill="#000000" transform="translate(0,0)"/>
<path d="" fill="#000000" transform="translate(0,0)"/>
<path d="" fill="#000000" transform="translate(0,0)"/>
<path d="" fill="#000000" transform="translate(0,0)"/>
<path d="" fill="#000000" transform="translate(0,0)"/>
<path d="" fill="#FFFFFF" transform="translate(0,0)"/>
<path d="" fill="#000000" transform="translate(0,0)"/>
<path d="" fill="#000000" transform="translate(0,0)"/>
<path d="" fill="#000000" transform="translate(0,0)"/>
<path d="" fill="#000000" transform="translate(0,0)"/>
<path d="" fill="#000000" transform="translate(0,0)"/>
<path d="" fill="#00007F" transform="translate(0,0)"/>
<path d="" fill="#000000" transform="translate(0,0)"/>
<path d="" fill="#000000" transform="translate(0,0)"/>
<path d="" fill="#000000" transform="translate(0,0)"/>
<path d="" fill="#007F7F" transform="translate(0,0)"/>
<path d="" fill="#005555" transform="translate(0,0)"/>
<path d="" fill="#000000" transform="translate(0,0)"/>
<path d="" fill="#000000" transform="translate(0,0)"/>
<path d="" fill="#000000" transform="translate(0,0)"/>
<path d="" fill="#000000" transform="translate(0,0)"/>
<path d="" fill="#000000" transform="translate(0,0)"/>
<path d="" fill="#00007F" transform="translate(0,0)"/>
<path d="" fill="#007F7F" transform="translate(0,0)"/>
<path d="" fill="#000000" transform="translate(0,0)"/>
<path d="" fill="#005555" transform="translate(0,0)"/>
<path d="" fill="#000000" transform="translate(0,0)"/>
<path d="" fill="#000000" transform="translate(0,0)"/>
<path d="" fill="#000000" transform="translate(0,0)"/>
<path d="" fill="#000000" transform="translate(0,0)"/>
<path d="" fill="#000000" transform="translate(0,0)"/>
<path d="" fill="#FFFFFF" transform="translate(0,0)"/>
<path d="" fill="#000000" transform="translate(0,0)"/>
<path d="" fill="#000000" transform="translate(0,0)"/>
<path d="" fill="#000000" transform="translate(0,0)"/>
<path d="" fill="#000000" transform="translate(0,0)"/>
<path d="" fill="#000000" transform="translate(0,0)"/>
<path d="" fill="#000000" transform="translate(0,0)"/>
<path d="" fill="#005555" transform="translate(0,0)"/>
<path d="" fill="#000000" transform="translate(0,0)"/>
<path d="" fill="#000000" transform="translate(0,0)"/>
<path d="" fill="#000000" transform="translate(0,0)"/>
<path d="" fill="#000000" transform="translate(0,0)"/>
<path d="" fill="#000000" transform="translate(0,0)"/>
<path d="" fill="#00007F" transform="translate(0,0)"/>
<path d="" fill="#000000" transform="translate(0,0)"/>
<path d="" fill="#007F7F" transform="translate(0,0)"/>
<path d="" fill="#007F7F" transform="translate(0,0)"/>
<path d="" fill="#000000" transform="translate(0,0)"/>
<path d="" fill="#000000" transform="translate(0,0)"/>
<path d="" fill="#000000" transform="translate(0,0)"/>
<path d="" fill="#000000" transform="translate(0,0)"/>
<path d="" fill="#000000" transform="translate(0,0)"/>
<path d="" fill="#000000" transform="translate(0,0)"/>
<path d="" fill="#00007F" transform="translate(0,0)"/>
<path d="" fill="#000000" transform="translate(0,0)"/>
<path d="" fill="#000000" transform="translate(0,0)"/>
<path d="" fill="#FFFFFF" transform="translate(0,0)"/>
<path d="" fill="#007F7F" transform="translate(0,0)"/>
<path d="" fill="#00007F" transform="translate(0,0)"/>
<path d="" fill="#005555" transform="translate(0,0)"/>
<path d="" fill="#000000" transform="translate(0,0)"/>
<path d="" fill="#000000" transform="translate(0,0)"/>
<path d="" fill="#000000" transform="translate(0,0)"/>
<path d="" fill="#000000" transform="translate(0,0)"/>
<path d="" fill="#00007F" transform="translate(0,0)"/>
<path d="" fill="#000000" transform="translate(0,0)"/>
<path d="" fill="#000000" transform="translate(0,0)"/>
<path d="" fill="#000000" transform="translate(0,0)"/>
<path d="" fill="#000000" transform="translate(0,0)"/>
<path d="" fill="#000000" transform="translate(0,0)"/>
<path d="" fill="#000000" transform="translate(0,0)"/>
<path d="" fill="#005555" transform="translate(0,0)"/>
<path d="" fill="#00007F" transform="translate(0,0)"/>
<path d="" fill="#FFFFFF" transform="translate(0,0)"/>
<path d="" fill="#000000" transform="translate(0,0)"/>
<path d="" fill="#00007F" transform="translate(0,0)"/>
<path d="" fill="#000000" transform="translate(0,0)"/>
<path d="" fill="#000000" transform="translate(0,0)"/>
<path d="" fill="#000000" transform="translate(0,0)"/>
<path d="" fill="#000000" transform="translate(0,0)"/>
<path d="" fill="#000000" transform="translate(0,0)"/>
<path d="" fill="#000000" transform="translate(0,0)"/>
<path d="" fill="#000000" transform="translate(0,0)"/>
<path d="" fill="#000000" transform="translate(0,0)"/>
<path d="" fill="#000000" transform="translate(0,0)"/>
<path d="" fill="#00007F" transform="translate(0,0)"/>
<path d="" fill="#000000" transform="translate(0,0)"/>
<path d="" fill="#000000" transform="translate(0,0)"/>
<path d="" fill="#000000" transform="translate(0,0)"/>
<path d="" fill="#000000" transform="translate(0,0)"/>
<path d="" fill="#00007F" transform="translate(0,0)"/>
<path d="" fill="#005555" transform="translate(0,0)"/>
<path d="" fill="#00007F" transform="translate(0,0)"/>
<path d="" fill="#000000" transform="translate(0,0)"/>
<path d="" fill="#000000" transform="translate(0,0)"/>
<path d="" fill="#000000" transform="translate(0,0)"/>
<path d="" fill="#000000" transform="translate(0,0)"/>
<path d="" fill="#003F7F" transform="translate(0,0)"/>
<path d="" fill="#000000" transform="translate(0,0)"/>
<path d="" fill="#003F7F" transform="translate(0,0)"/>
<path d="" fill="#000000" transform="translate(0,0)"/>
<path d="" fill="#000000" transform="translate(0,0)"/>
<path d="" fill="#000000" transform="translate(0,0)"/>
<path d="" fill="#000000" transform="translate(0,0)"/>
<path d="" fill="#000000" transform="translate(0,0)"/>
<path d="" fill="#000000" transform="translate(0,0)"/>
<path d="" fill="#000000" transform="translate(0,0)"/>
<path d="" fill="#000000" transform="translate(0,0)"/>
<path d="" fill="#000000" transform="translate(0,0)"/>
<path d="" fill="#007F7F" transform="translate(0,0)"/>
<path d="" fill="#000000" transform="translate(0,0)"/>
<path d="" fill="#000000" transform="translate(0,0)"/>
<path d="" fill="#0000FF" transform="translate(0,0)"/>
<path d="" fill="#00007F" transform="translate(0,0)"/>
<path d="" fill="#000000" transform="translate(0,0)"/>
<path d="" fill="#000000" transform="translate(0,0)"/>
<path d="" fill="#005555" transform="translate(0,0)"/>
<path d="" fill="#007F7F" transform="translate(0,0)"/>
<path d="" fill="#00007F" transform="translate(0,0)"/>
<path d="" fill="#000000" transform="translate(0,0)"/>
<path d="" fill="#000000" transform="translate(0,0)"/>
<path d="" fill="#00007F" transform="translate(0,0)"/>
<path d="" fill="#000000" transform="translate(0,0)"/>
<path d="" fill="#000000" transform="translate(0,0)"/>
<path d="" fill="#007F7F" transform="translate(0,0)"/>
<path d="" fill="#00007F" transform="translate(0,0)"/>
<path d="" fill="#0000FF" transform="translate(0,0)"/>
<path d="" fill="#000000" transform="translate(0,0)"/>
<path d="" fill="#005555" transform="translate(0,0)"/>
<path d="" fill="#000000" transform="translate(0,0)"/>
<path d="" fill="#000000" transform="translate(0,0)"/>
<path d="" fill="#FFFFFF" transform="translate(0,0)"/>
<path d="" fill="#000000" transform="translate(0,0)"/>
<path d="" fill="#005555" transform="translate(0,0)"/>
<path d="" fill="#007F7F" transform="translate(0,0)"/>
<path d="" fill="#005555" transform="translate(0,0)"/>
<path d="" fill="#000000" transform="translate(0,0)"/>
<path d="" fill="#000000" transform="translate(0,0)"/>
<path d="" fill="#000000" transform="translate(0,0)"/>
<path d="" fill="#00007F" transform="translate(0,0)"/>
<path d="" fill="#000000" transform="translate(0,0)"/>
<path d="" fill="#00007F" transform="translate(0,0)"/>
<path d="" fill="#000000" transform="translate(0,0)"/>
<path d="" fill="#005555" transform="translate(0,0)"/>
<path d="" fill="#007F7F" transform="translate(0,0)"/>
<path d="" fill="#000000" transform="translate(0,0)"/>
<path d="" fill="#005555" transform="translate(0,0)"/>
<path d="" fill="#000000" transform="translate(0,0)"/>
<path d="" fill="#005555" transform="translate(0,0)"/>
<path d="" fill="#007F7F" transform="translate(0,0)"/>
<path d="" fill="#000000" transform="translate(0,0)"/>
<path d="" fill="#000000" transform="translate(0,0)"/>
<path d="" fill="#00007F" transform="translate(0,0)"/>
<path d="" fill="#00007F" transform="translate(0,0)"/>
<path d="" fill="#007F7F" transform="translate(0,0)"/>
<path d="" fill="#00007F" transform="translate(0,0)"/>
<path d="" fill="#000000" transform="translate(0,0)"/>
<path d="" fill="#000000" transform="translate(0,0)"/>
<path d="" fill="#000000" transform="translate(0,0)"/>
<path d="" fill="#000000" transform="translate(0,0)"/>
<path d="" fill="#000000" transform="translate(0,0)"/>
<path d="" fill="#000000" transform="translate(0,0)"/>
<path d="" fill="#000000" transform="translate(0,0)"/>
<path d="" fill="#000000" transform="translate(0,0)"/>
<path d="" fill="#000000" transform="translate(0,0)"/>
<path d="" fill="#00007F" transform="translate(0,0)"/>
<path d="" fill="#00007F" transform="translate(0,0)"/>
<path d="" fill="#000000" transform="translate(0,0)"/>
<path d="" fill="#0000FF" transform="translate(0,0)"/>
<path d="" fill="#00007F" transform="translate(0,0)"/>
<path d="" fill="#FFFFFF" transform="translate(0,0)"/>
<path d="" fill="#000000" transform="translate(0,0)"/>
<path d="" fill="#000000" transform="translate(0,0)"/>
<path d="" fill="#000000" transform="translate(0,0)"/>
<path d="" fill="#000000" transform="translate(0,0)"/>
<path d="" fill="#000000" transform="translate(0,0)"/>
<path d="" fill="#000000" transform="translate(0,0)"/>
<path d="" fill="#000000" transform="translate(0,0)"/>
<path d="" fill="#000000" transform="translate(0,0)"/>
<path d="" fill="#000000" transform="translate(0,0)"/>
<path d="" fill="#00007F" transform="translate(0,0)"/>
<path d="" fill="#000000" transform="translate(0,0)"/>
<path d="" fill="#FFFFFF" transform="translate(0,0)"/>
<path d="" fill="#000000" transform="translate(0,0)"/>
<path d="" fill="#007F7F" transform="translate(0,0)"/>
<path d="" fill="#000000" transform="translate(0,0)"/>
<path d="" fill="#00007F" transform="translate(0,0)"/>
<path d="" fill="#007F7F" transform="translate(0,0)"/>
<path d="" fill="#000000" transform="translate(0,0)"/>
<path d="" fill="#000000" transform="translate(0,0)"/>
<path d="" fill="#00007F" transform="translate(0,0)"/>
<path d="" fill="#000000" transform="translate(0,0)"/>
<path d="" fill="#000000" transform="translate(0,0)"/>
<path d="" fill="#000000" transform="translate(0,0)"/>
<path d="" fill="#007F7F" transform="translate(0,0)"/>
<path d="" fill="#000000" transform="translate(0,0)"/>
<path d="" fill="#000000" transform="translate(0,0)"/>
<path d="" fill="#FFFFFF" transform="translate(0,0)"/>
<path d="" fill="#007F7F" transform="translate(0,0)"/>
<path d="" fill="#00007F" transform="translate(0,0)"/>
<path d="" fill="#000000" transform="translate(0,0)"/>
<path d="" fill="#000000" transform="translate(0,0)"/>
<path d="" fill="#555555" transform="translate(0,0)"/>
<path d="" fill="#FFFFFF" transform="translate(0,0)"/>
<path d="" fill="#000000" transform="translate(0,0)"/>
<path d="" fill="#000000" transform="translate(0,0)"/>
<path d="" fill="#000000" transform="translate(0,0)"/>
<path d="" fill="#000000" transform="translate(0,0)"/>
<path d="" fill="#000000" transform="translate(0,0)"/>
<path d="" fill="#000000" transform="translate(0,0)"/>
<path d="" fill="#000000" transform="translate(0,0)"/>
<path d="" fill="#000000" transform="translate(0,0)"/>
<path d="" fill="#000000" transform="translate(0,0)"/>
<path d="" fill="#007F7F" transform="translate(0,0)"/>
<path d="" fill="#005555" transform="translate(0,0)"/>
<path d="" fill="#000000" transform="translate(0,0)"/>
<path d="" fill="#000000" transform="translate(0,0)"/>
<path d="" fill="#000000" transform="translate(0,0)"/>
<path d="" fill="#000000" transform="translate(0,0)"/>
<path d="" fill="#000000" transform="translate(0,0)"/>
<path d="" fill="#000000" transform="translate(0,0)"/>
<path d="" fill="#000000" transform="translate(0,0)"/>
<path d="" fill="#000000" transform="translate(0,0)"/>
<path d="" fill="#000000" transform="translate(0,0)"/>
<path d="" fill="#000000" transform="translate(0,0)"/>
<path d="" fill="#000000" transform="translate(0,0)"/>
<path d="" fill="#000000" transform="translate(0,0)"/>
<path d="" fill="#000000" transform="translate(0,0)"/>
<path d="" fill="#000000" transform="translate(0,0)"/>
<path d="" fill="#000000" transform="translate(0,0)"/>
<path d="" fill="#000000" transform="translate(0,0)"/>
<path d="" fill="#000000" transform="translate(0,0)"/>
<path d="" fill="#000000" transform="translate(0,0)"/>
<path d="" fill="#000000" transform="translate(0,0)"/>
<path d="" fill="#000000" transform="translate(0,0)"/>
<path d="" fill="#007F7F" transform="translate(0,0)"/>
<path d="" fill="#007F7F" transform="translate(0,0)"/>
<path d="" fill="#000000" transform="translate(0,0)"/>
<path d="" fill="#000000" transform="translate(0,0)"/>
<path d="" fill="#000000" transform="translate(0,0)"/>
<path d="" fill="#000000" transform="translate(0,0)"/>
<path d="" fill="#000000" transform="translate(0,0)"/>
<path d="" fill="#007F7F" transform="translate(0,0)"/>
<path d="" fill="#000000" transform="translate(0,0)"/>
<path d="" fill="#000000" transform="translate(0,0)"/>
<path d="" fill="#000000" transform="translate(0,0)"/>
<path d="" fill="#000000" transform="translate(0,0)"/>
<path d="" fill="#000000" transform="translate(0,0)"/>
<path d="" fill="#000000" transform="translate(0,0)"/>
<path d="" fill="#000000" transform="translate(0,0)"/>
<path d="" fill="#000000" transform="translate(0,0)"/>
<path d="" fill="#000000" transform="translate(0,0)"/>
<path d="" fill="#555555" transform="translate(0,0)"/>
<path d="" fill="#000000" transform="translate(0,0)"/>
<path d="" fill="#000000" transform="translate(0,0)"/>
<path d="" fill="#000000" transform="translate(0,0)"/>
<path d="" fill="#FFFFFF" transform="translate(0,0)"/>
<path d="" fill="#000000" transform="translate(0,0)"/>
<path d="" fill="#000000" transform="translate(0,0)"/>
<path d="" fill="#000000" transform="translate(0,0)"/>
<path d="" fill="#000000" transform="translate(0,0)"/>
<path d="" fill="#007F7F" transform="translate(0,0)"/>
<path d="" fill="#007F7F" transform="translate(0,0)"/>
<path d="" fill="#000000" transform="translate(0,0)"/>
<path d="" fill="#000000" transform="translate(0,0)"/>
<path d="" fill="#007F7F" transform="translate(0,0)"/>
<path d="" fill="#000000" transform="translate(0,0)"/>
<path d="" fill="#000000" transform="translate(0,0)"/>
<path d="" fill="#007F7F" transform="translate(0,0)"/>
<path d="" fill="#000000" transform="translate(0,0)"/>
<path d="" fill="#000000" transform="translate(0,0)"/>
<path d="" fill="#007F7F" transform="translate(0,0)"/>
<path d="" fill="#000000" transform="translate(0,0)"/>
<path d="" fill="#000000" transform="translate(0,0)"/>
<path d="" fill="#000000" transform="translate(0,0)"/>
<path d="" fill="#000000" transform="translate(0,0)"/>
<path d="" fill="#000000" transform="translate(0,0)"/>
<path d="" fill="#000000" transform="translate(0,0)"/>
<path d="" fill="#000000" transform="translate(0,0)"/>
<path d="" fill="#000000" transform="translate(0,0)"/>
<path d="" fill="#000000" transform="translate(0,0)"/>
<path d="" fill="#000000" transform="translate(0,0)"/>
<path d="" fill="#000000" transform="translate(0,0)"/>
<path d="" fill="#00007F" transform="translate(0,0)"/>
<path d="" fill="#7F7F7F" transform="translate(0,0)"/>
<path d="" fill="#000000" transform="translate(0,0)"/>
<path d="" fill="#000000" transform="translate(0,0)"/>
<path d="" fill="#000000" transform="translate(0,0)"/>
<path d="" fill="#000000" transform="translate(0,0)"/>
<path d="" fill="#000000" transform="translate(0,0)"/>
<path d="" fill="#000000" transform="translate(0,0)"/>
<path d="" fill="#000000" transform="translate(0,0)"/>
<path d="" fill="#00007F" transform="translate(0,0)"/>
<path d="" fill="#000000" transform="translate(0,0)"/>
<path d="" fill="#000000" transform="translate(0,0)"/>
<path d="" fill="#000000" transform="translate(0,0)"/>
<path d="" fill="#000000" transform="translate(0,0)"/>
<path d="" fill="#000000" transform="translate(0,0)"/>
<path d="" fill="#000000" transform="translate(0,0)"/>
<path d="" fill="#7F7F7F" transform="translate(0,0)"/>
<path d="" fill="#000000" transform="translate(0,0)"/>
<path d="" fill="#000000" transform="translate(0,0)"/>
<path d="" fill="#000000" transform="translate(0,0)"/>
<path d="" fill="#7F7F7F" transform="translate(0,0)"/>
<path d="" fill="#000000" transform="translate(0,0)"/>
<path d="" fill="#000000" transform="translate(0,0)"/>
<path d="" fill="#000000" transform="translate(0,0)"/>
<path d="" fill="#000000" transform="translate(0,0)"/>
<path d="" fill="#000000" transform="translate(0,0)"/>
<path d="" fill="#000000" transform="translate(0,0)"/>
<path d="" fill="#000000" transform="translate(0,0)"/>
<path d="" fill="#000000" transform="translate(0,0)"/>
<path d="" fill="#000000" transform="translate(0,0)"/>
<path d="" fill="#7F7F7F" transform="translate(0,0)"/>
<path d="" fill="#000000" transform="translate(0,0)"/>
<path d="" fill="#000000" transform="translate(0,0)"/>
<path d="" fill="#00007F" transform="translate(0,0)"/>
<path d="" fill="#7F7F7F" transform="translate(0,0)"/>
<path d="" fill="#000000" transform="translate(0,0)"/>
<path d="" fill="#000000" transform="translate(0,0)"/>
<path d="" fill="#000000" transform="translate(0,0)"/>
<path d="" fill="#000000" transform="translate(0,0)"/>
<path d="" fill="#FFFFFF" transform="translate(0,0)"/>
<path d="" fill="#000000" transform="translate(0,0)"/>
<path d="" fill="#7F7F7F" transform="translate(0,0)"/>
<path d="" fill="#000000" transform="translate(0,0)"/>
<path d="" fill="#000000" transform="translate(0,0)"/>
<path d="" fill="#000000" transform="translate(0,0)"/>
<path d="" fill="#FFFFFF" transform="translate(0,0)"/>
<path d="" fill="#000000" transform="translate(0,0)"/>
<path d="" fill="#000000" transform="translate(0,0)"/>
<path d="" fill="#000000" transform="translate(0,0)"/>
<path d="" fill="#000000" transform="translate(0,0)"/>
<path d="" fill="#FFFFFF" transform="translate(0,0)"/>
<path d="" fill="#000000" transform="translate(0,0)"/>
<path d="" fill="#7F7F7F" transform="translate(0,0)"/>
<path d="" fill="#000000" transform="translate(0,0)"/>
<path d="" fill="#000000" transform="translate(0,0)"/>
<path d="" fill="#000000" transform="translate(0,0)"/>
<path d="" fill="#000000" transform="translate(0,0)"/>
<path d="" fill="#000000" transform="translate(0,0)"/>
<path d="" fill="#FFFFFF" transform="translate(0,0)"/>
<path d="" fill="#000000" transform="translate(0,0)"/>
<path d="" fill="#000000" transform="translate(0,0)"/>
<path d="" fill="#000000" transform="translate(0,0)"/>
<path d="" fill="#000000" transform="translate(0,0)"/>
<path d="" fill="#000000" transform="translate(0,0)"/>
<path d="" fill="#000000" transform="translate(0,0)"/>
<path d="" fill="#000000" transform="translate(0,0)"/>
<path d="" fill="#000000" transform="translate(0,0)"/>
<path d="" fill="#000000" transform="translate(0,0)"/>
<path d="" fill="#000000" transform="translate(0,0)"/>
<path d="" fill="#000000" transform="translate(0,0)"/>
<path d="" fill="#000000" transform="translate(0,0)"/>
<path d="" fill="#000000" transform="translate(0,0)"/>
<path d="" fill="#000000" transform="translate(0,0)"/>
<path d="" fill="#007F7F" transform="translate(0,0)"/>
<path d="" fill="#7F7F7F" transform="translate(0,0)"/>
<path d="" fill="#000000" transform="translate(0,0)"/>
<path d="" fill="#000000" transform="translate(0,0)"/>
<path d="" fill="#000000" transform="translate(0,0)"/>
<path d="" fill="#000000" transform="translate(0,0)"/>
<path d="" fill="#000000" transform="translate(0,0)"/>
<path d="" fill="#7F7F7F" transform="translate(0,0)"/>
<path d="" fill="#000000" transform="translate(0,0)"/>
<path d="" fill="#000000" transform="translate(0,0)"/>
<path d="" fill="#000000" transform="translate(0,0)"/>
<path d="" fill="#000000" transform="translate(0,0)"/>
<path d="" fill="#000000" transform="translate(0,0)"/>
<path d="" fill="#000000" transform="translate(0,0)"/>
<path d="" fill="#007F7F" transform="translate(0,0)"/>
<path d="" fill="#000000" transform="translate(0,0)"/>
<path d="" fill="#000000" transform="translate(0,0)"/>
<path d="" fill="#000000" transform="translate(0,0)"/>
<path d="" fill="#FFFFFF" transform="translate(0,0)"/>
<path d="" fill="#000000" transform="translate(0,0)"/>
<path d="" fill="#000000" transform="translate(0,0)"/>
<path d="" fill="#000000" transform="translate(0,0)"/>
<path d="" fill="#000000" transform="translate(0,0)"/>
<path d="" fill="#000000" transform="translate(0,0)"/>
<path d="" fill="#000000" transform="translate(0,0)"/>
<path d="" fill="#000000" transform="translate(0,0)"/>
<path d="" fill="#7F7F7F" transform="translate(0,0)"/>
<path d="" fill="#000000" transform="translate(0,0)"/>
<path d="" fill="#000000" transform="translate(0,0)"/>
<path d="" fill="#000000" transform="translate(0,0)"/>
<path d="" fill="#000000" transform="translate(0,0)"/>
<path d="" fill="#7F7F7F" transform="translate(0,0)"/>
<path d="" fill="#000000" transform="translate(0,0)"/>
<path d="" fill="#000000" transform="translate(0,0)"/>
</svg>
